<?xml version="1.0" encoding="UTF-8"?>
<svg id="Layer_2" data-name="Layer 2" xmlns="http://www.w3.org/2000/svg" viewBox="0 0 2579.79 900.72">
  <g id="Layer_1-2" data-name="Layer 1" fill="#2c3338">
    <path d="M1401.02,63.23c3.52-17.1,12.01-36.88,28.63-44.84,25.32-12.13,52.94,3.24,58.87,29.84,1.58,7.1,1.16,14.14,3.09,21.11,17.95,5.87,35.97,11.51,54.17,16.59,35.86,10.01,67.31,13.3,97.64,37.29,52.63,41.63,36.22,110.66-35.93,104.85-54.58-4.39-92.52-53.46-145.82-61.83-2.06.58-12.38,24.55-13.66,28.35-12.66,37.6,9.27,64.36,6,100.91-1.45,16.23-10.89,33.19-14.9,49.05-12.61,49.8,10.56,99.41,1.61,149.48-5.55,31.01-24.61,57.57-33.17,87.74-12.86,45.29-6.39,98.39-8.45,145.42-.1,2.32-1.02,4.21-1.03,6.45,2.34-2.17,3.8-6.35,5.17-9.31,6.03-13.06,17.75-35.87,21.14-48.81,2.35-8.99,2.2-20.09,4.17-29.81,6.85-33.74,21.5-52.74,41.51-78.7,4.73-6.14,15.47-17.96,13.78-25.49-1.32-5.85-21.36-20.64-26.75-27.22-28.71-35-1.54-84.9,42.47-84.47,22.24.21,39.91,12.74,59.21,15.82,2.11.34,4.18.68,6.21-.31,20.16-18.06,41.2-35.42,59.54-55.39,37.26-40.56,63.59-89.95,106.98-124.88,28.66-23.07,69.96-38.94,93.42-65.5,17.43-19.73,29.13-46.23,55.75-56.19,22.36-8.36,54.52-5.44,68.06,16.42.98,1.58,6.34,14.95,7.16,14.31,7.23-12.87,15.62-26.89,25.03-38.44,22.43-27.53,72.2-58.47,105.42-31.48,32.84,26.68,11.45,78.64-13.95,102.92-4.68,4.47-21.69,16.44-22.46,21.51-1.21,7.9.87,11.59-4.62,19.36-6.51,9.2-18.79,10.25-24.95,17.02-4.28,4.72,5.37,10.9,8.34,15.69,3.15,5.08,5.69,11.79,6.21,17.77.64,7.43-1.86,18.01-.98,23.95.56,3.77,5.68,12.49,7.21,17.79,2.62,9.12,1.79,23.06,11.73,27.24,9.05,3.8,26.83,4.47,37.98,8,71.16,22.48,44.33,108.08,38.12,162.99-1.34,11.89-1.76,23.97-3.13,35.84-2.61,22.59-7.94,48.78-8.98,70.95-.47,10.07,2.38,18.6,13.74,20.26,6.25.91,23.38-8.19,30.72-10.79,21.77-7.73,60.26-16.77,82.98-14.95,47.73,3.82,94.3,56.55,141.83,50.8,44.58-5.39,71.91-24,120.37-10.11,37.45,10.73,97.35,57.28,63.19,99.66-27.78,34.47-85,25.24-122.36,15.43-14.03-3.68-33.77-12.38-47.19-13.79-11.74-1.23-24.81.72-36.74-.25-19.72-1.6-39.46-10.16-58.28-12.71-12.58-1.71-27.11.28-40.69-1.27-23.69-2.71-56.62-17.99-78.09-15.85-12.58,1.25-56.43,19-68.19,25.77-5.41,3.12-10.16,8.73-15.4,12.58-39.2,28.81-95.77,76.67-146.86,48.09-53.28-29.8-11.59-89.17,19-117.93,17.01-15.99,51.22-37.73,57.29-60.64,3.38-12.74-1.42-24.92-2.31-37.76l-9.48,18.99c-24.52,29.53-90.41,14.77-120.83.84-27.69-12.68-44.14-33.25-48.64-63.8-17.26,7.5-35.83,6.22-52.65-1.82-30.67-14.66-43.31-31.25-81.07-36.87-27.2-4.05-78.47-6.16-104.21,2.2-7.23,2.35-28.29,22.52-34.98,28.98-11.6,11.2-23.31,22.41-29,37.96-8.16,22.31-1.26,41.7-1.93,64.02-.64,21.26-9.4,46.96-13.57,68.37-10.7,54.95-15.87,154.61-90.96,159.87-41.89,2.94-58.89-24.28-68.74-60.15-2.3-8.37-3.07-17.09-2.73-25.75l-12.97,14.5c-60.89,49.97-117.13-15.48-100.7-80.66,9.84-39.02,32.97-79.43,40.68-120.2l28-69.42c-1.51.54-2.47,3.8-3.16,5.32-9.31,20.31-16.81,41.99-27.3,61.64-7.54,14.13-17.13,27.12-24.69,41.27-14.6,27.35-21.48,48.43-45.8,70.13-58.99,52.63-117.24,23.59-174.48-13.48-34.86-22.58-51.19-36.19-67.93-74.99-6.89-15.97-12.59-41.52-23.01-53.93-7.39-8.8-17.79-17.13-25.49-25.97l12.57,21.9c17.01,24.04,32.08,47.03,40.12,75.8,7.58,27.13,5.65,49.83,25.25,72.68,29.53,34.42,65.34,49.3,72.87,101.02,4.19,28.77-5.84,68.27-43.08,59.04-31.07-7.7-57.92-70.51-73.94-96.95-19.42-32.05-41.94-56.73-54.81-93.1-22.97-64.91-39.89-135.65-79.74-193.08-18.56-26.75-44.9-44.9-63.02-70.9-8.99-12.91-10.97-22.94-25.51-31.46s-34.66-12.93-52.2-11.86c-5.15.31-13.45.44-15.53,5.46-5.87,14.15-6.3,42.07-9.4,58.55-2.76,14.7-9.59,30.17-10.56,44.4-.64,9.4.7,19.57.03,29-1.56,21.9-10.83,43.02-25.75,58.95,23.59,34.08,32.36,73.6,29.75,114.91-3.77,59.7-39.32,84.94-88.6,109.28-30.71,15.16-71.42,37.12-105.83,37.11-10.87,0-22.42-3.32-32.95-4.03-23.94-1.63-47.55,4.68-72.06,3.08-25.49-1.66-51.28-16.59-76.97-8.07-7.07,2.34-13.42,6.54-21.24,8.75-8.62,2.43-15.25,2.19-23.45,3.54-17.46,2.87-25.74,21.04-43.7,25.27-32.56,7.67-36.92-20.74-31.55-45.52,2.19-10.12,7.68-21.26,8.49-31.48.84-10.67-3.98-20.4-4.97-30.97-.51-5.47.51-10.9-.46-16.53-1.67-9.74-12.51-15.7-19.06-22.91-23.95-26.37-36.68-59.98-33.49-95.93-21.78,19.25-51.28,39.56-80.27,21.78-15.68-9.61-22.68-30.42-20.58-48.15,3.34-28.28,56.81-62.81,69.35-93.55,1.69-4.14,7.45-20.93,7.56-24.49.35-10.82-18.1-42.15-23.22-53.75-14.1-31.97-12.47-46.36-10.83-80.12,2.21-45.58-20.4-62.23-31.24-100.64-4.19-14.85-2.62-23.84-3.7-38.27-2.19-29.29-33.78-52.32-18.21-85.07,10.85-22.83,37.72-22.84,59.37-19.01,31.51,5.58,46.65,28.87,70.84,45.1,20.58,13.81,47.48,9.64,71.28,12.68,18.83,2.41,38.92,11.31,56.12,12.85,29.25,2.62,59.81-1.3,88.97-1.97,35.8-.83,64.81,16.03,80.64,48.27,7.17,14.6,6.03,30.12,16.3,42.66,6.68,8.15,16.56,15.34,23.47,23.5,30.24,35.67,36,88.67,15.95,130.76l33.06,16.59c3.65-13.15,6.63-26.53,10.99-39.48,12.25-36.34,27.98-55.79,26-97.89-.56-11.95-6.09-23.14-7.02-34.94-1.72-21.81,3.99-43.02,3.08-65.02-.96-22.97-11.75-53.1-20.02-74.91-8.52-22.49-27.04-41.06-28.99-65.94-3.78-48.03,48.65-65.58,81.48-34.48,14.54,13.77,19.94,32.6,26.7,50.75,40.01,4.05,77.29,24.75,108.62,48.8,22.01,16.89,40.52,37.5,64.17,52.77,45.1,29.12,113.72,22.48,125.6,90.28,8.31,47.43-18.74,88.22-55.7,114.62,14.77,16.94,31.49,32.29,43.39,51.55l10.57,18.89c.5-16.5,3.21-32.95,4.05-49.41,2.38-46.4-1.57-84.39,20.07-127.81,13.73-27.54,30.44-36.68,34.86-70.07,2.26-17.09,5.24-27.34,8.52-43.44,5.15-25.33-2.67-45.98-.49-70.43,4.35-48.82,64.34-53.03,90.93-18.98,16.28,20.84,10.75,51.79,14.16,76.77,1.73,12.65,6.86,25.76,7.84,38.13,4.7,59.25-40.18,91.81-69.78,135.05-19.86,29.03-13.85,46.09-15.14,78.79-.81,20.45-4.49,41.41-1.92,61.78,3.86,30.56,24.23,78.83,46.85,100.05,7.23,6.78,16.51,12.29,24.02,18.96,16.95,15.04,21.84,28.23,48.51,27.53,28.76-.75,57.12-17.3,63.14-46.8,4.24-20.79,5.13-42.71,9.98-63.97,4.39-19.23,12.53-36.1,17.57-54.37,6.18-22.41,9.25-80.37,7.78-104.22-2.45-39.55-22.51-81.14-20.02-121.84,3.61-59.02,85.29-54.81,94.83,11.1,4.87,33.63,8.87,69.84,11.16,103.75.87,12.87-.5,25.18,5.47,37.49l27.46,48.97-7.03-94.37c.25-37.28-2.77-75.06,7.54-111.44,8.27-29.18,26.37-52.1,39.49-78.92-25.92-6.83-49.78-17.37-71.7-32.77-6.79-4.77-12.8-10.69-19.74-15.24-13.51-8.85-46.13-23.05-61.92-20.86-9.78,1.36-36.44,23.03-47.9,29.06-34.96,18.37-78.48,23.85-101.44-14.85-25.06-42.24-3.11-87.13,46.3-90.22,19.26-1.21,38.04,6.13,54.97,5.98,12.14-.11,33.1-8.95,47.15-10.82,42.21-5.6,70.08,5.46,105.22,26.4,23.03,13.72,43.32,31.96,71.05,35.39ZM1249.08,7.29c-5.11-1.73-6.36-2.55-11.13.4-.79.49-2.62.43-1.86,2.07,1.46,3.11,9.34,1.29,11.71-.23.99-.64,1.77.08,1.28-2.23ZM1226.59,8.27c-2.66-.8-14.1,0-17.99,0-2.77,0-7.83,4.55-8.46,7.52,4.46,5.14,28.3,2.61,27.94-5.07-.04-.96-.7-2.21-1.49-2.45ZM1351.05,50.23c-16.45-11.21-32.9-22.66-50.63-31.82-10-2.99-19.6-8.88-30.34-8.13l22.35,10.12c13.95,17.54,39.28,20.35,58.62,29.82ZM1146.11,15.28c-7.45-.52-18.3-4.13-25.44-2.95-3.33.55-10.57,6.31-14.86,8.11-5.75,2.42-11.99,2.45-16.67,7.32-2.5,2.61-12.16,21.01-10,23.47,1.76.36,2.46-.91,3.51-1.98,3.39-3.48,5.36-8.02,9.47-11.51,8.93-7.59,25.41-9.26,35.01-17.96l18.97-4.5ZM1454.7,25.55c-4.86-5.54-19.61-3.36-24.94.68-.93.7-3.74,5.93-3.71,6.53.1,1.92,2.16.82,2.74.8,5.75-.22,17.41-.39,22.51-1.52,3.21-.71,6.08-3.43,3.4-6.49ZM593.28,73.21c-1.99-6.67-6.37-15.36-10.19-21.28-8.32-12.89-19.85-19.07-35.3-15.69-1.35.3-2.53-.15-3.47,1.5-.29,4.07,15.84,7.62,18.97,9,7.27,3.2,13.8,12.84,22.02,15.96l7.96,10.51ZM1471.03,36.27c-2.3,4.25,4.03,19,8.97,16.53,6.88-3.43-4.52-19.48-8.97-16.53ZM516.3,72.22c.42-3.03,1.09-6.43,2.23-9.27.68-1.69,14.02-24.73,2.73-16.26-8.28,6.22-9.88,14.39-6.98,24.07.43,1.45-.56,1.74,2.02,1.46ZM997.39,107.42c.88-.73,5.36-1.27,7.72-2.77,1.97-1.26,4.46-4.29,5.6-6.39,1.69-3.13,5.35-15.13,3.54-17.59-5.8-7.87-19.36,4.99-22.62,10.51-2.86,4.85-9.82,23.87-1.75,25.85,5.97,1.47,5.59-8,7.52-9.61ZM1057.9,95.95c5.55-5.55-7.75-14.77-11.28-7.75-2.51,4.99,7.3,11.73,11.28,7.75ZM1547.98,98.21c-5.94-1.76-11.49-5.42-17.98-5l10.78,4.69c1.6.05,6.46,2.81,7.2.31ZM1621.96,120.17c.47-1.92-.7-1.92-1.68-2.81-7.53-6.86-33.77-19.98-43.7-20.06-1.81-.01-14.6,1.77-14.58,3.39,1.17,1.24,2.12,2.51,3.74,3.24,5.26,2.37,14.36,4.09,20.48,6.51,11.91,4.71,22.39,13.19,35.74,9.73ZM644.77,103.19c-4.84-.81-13.59,0-18.99,0-.57,0-4.36-2.64-4.49-.01,7.23,2.84,14.68,8.21,22.17,10.32,9.01,2.54,17.52.58,26.5,4.49,5.29,2.3,21.24,15.68,24.78,15.18,1.41-.2,1.44-1.18.53-2.51s-20.84-15.39-23.31-16.67c-5.17-2.69-7.9-1.03-12.73-2.27-4.4-1.13-9.26-7.66-14.46-8.52ZM2052.91,112.1c14.26,2.14,15.12,15.99,22.86,25.62,1.23,1.52,3.56,2.23,4.48,3.52,1.27,1.76,2.03,9.56,5.05,8.92,2.73-2.27,1-6.13,1.71-9.29.76-3.38,3.36-3.45,2.84-9.2-.42-4.69-12.59-19.87-16.59-20.5-2.63-.41-5.06,1.08-7.8.97-2.36-.1-11.61-4-12.63-2.94l.08,2.9ZM2029.83,111.19c-2.38-2.37-19.32,9.18-22,11.48-5.22,4.47-9.69,10.63-10.98,17.49,1.86.44,2.77-.63,4.14-1.35,5-2.62,20.77-12.14,24.34-15.64,3.08-3.02,4.91-7.67,4.5-11.98ZM45.2,133.41c-4.83.81-12.54,5.48-11.76,11.19,1.17,8.54,10.16-.92,13.59-1.41,6.14-.88,25.87,6.8,32.1,9.77,4.56,2.17,8.7,5.75,13.32,7.67,6.11,2.54,12.77,1.78,17.68,4.31,3.3,1.7,11.86,12.47,15.28,10.74,3.62-1.84.29-4.05-2.06-5.96-18.9-15.36-46.7-31.69-70.84-36.1-2.73-.5-4.51-.69-7.31-.21ZM28.15,146.46c-5.69-6.78-17.01,5.43-12.2,9.7,3.79,3.37,11.36-2.19,13.37-5.72.35-1.37-.28-2.94-1.17-3.99ZM755.23,182.12c.44-1.88-1.06-2.37-1.99-3.49-3.81-4.62-26.69-25.88-31.27-27.69-1.19-.47-8.28-2.11-8.72-1.77,1.26,2.4,1.49,5.18,2.99,7.5,1.21,1.87,18.19,18.77,20.05,19.93,4.8,3,13.52,3.14,18.95,5.53ZM1649.45,149.18c-.92.71-1.39,1.28-1.55,2.48-.39,2.91,4.53,14.12,5.61,18.42,1.23,4.89-.61,13.2,6.71,13.91,8.91-1.29,4.59-20.63,1.17-25.78-2.82-4.25-7.59-6.7-11.93-9.04ZM1906.54,151.53c-11.03.09-22.54,4.69-30.67,12.1-3.89,3.55-12.24,13.67-3.28,16.29,10.25,2.99,16.3-13.7,27.9-14.73,7.58-.67,26.5,12.41,29.93,2.01,4.2-12.75-15.3-15.74-23.88-15.67ZM1372.05,184.12c4.46-2.64,6.64-7.85,5.98-12.99-4.8,2.63-6.95,7.62-5.98,12.99ZM650.77,179.13c-6.49-.91-14.78.67-21.49,0l23.18,136.69c38.53,3.85,78.27,18.37,116.64,7.05-1.24-41.25-45.91-57.59-70.36-84.78-13.63-15.16-21.04-33.86-33.5-48.44-3.59-4.2-8.83-9.73-14.47-10.52ZM234.4,195.13c-13.34-2.42-28.26-8.46-41.58-9.9-5.41-.59-11.29-.67-15.37,3.39,3.5,3.68,8.71,5.51,13.59,6.39,11.4,2.04,18.12-1.99,27.88-1.97,4.77,0,8.01,1.94,12.24,2.85,1.01.22,3.51,1.01,3.25-.76ZM241.4,197.12c.85,5.1,5.72,8.5,9.99,4.46-.68-6.02-5.21-5.91-9.99-4.46ZM1364.04,200.12c-4.17-1.92-7.61,9.34-6.99,9.98,3.33.76,8.17-8.82,6.99-9.98ZM352.37,201.12c-.21,12.84,11.08,12,19.3,16.17,7.11,3.61,10.27,10.4,14.99,13,10.1,5.57,19.26,3.36,28.69,14.28,1.63,1.89,8.73,15.03,12.55,9.55,4.27-6.14-6.88-11.69-9.55-14.55-6.84-7.31-6.66-17.75-16.67-25.3-2.94-2.22-19-10.03-22.26-10.72-5.44-1.15-11.11.05-16.56-.44-3.56-.32-6.7-2.68-10.48-2ZM1263.07,209.1c-2.28-11.51-15.06-4.83-22.98-4.99l22.98,4.99ZM1209.09,226.59c-.6,4.8.43,10.56,0,15.49l4.81-6.69c1.81-4.04,4.36-7.86,6.05-11.94,1.07-2.57,5.76-11.88,1.53-13.27-5.81-1.92-11.81,11.87-12.38,16.41ZM896.48,283.74c6.53,6.08,3.5-9.77,2.44-12.91-5.38-15.81-25-30.98-40.19-36.77-11.03-4.2-22.25-4.25-33.05-7.93-4.04-1.38-18.99-10.19-20.82-9.83-.9.18-1.62,1.1-2.17,1.82-1.4,2.97,5.85,11.44,8.03,13.98,11.28,13.16,25.57,24.22,43.01,26.95,10.88,1.71,11.24,1.54,21.66,5.33,2.43.88,5.11.42,7.56,1.43,5.72,2.37,9.5,14.17,13.54,17.93ZM1801.9,233.09c-1.89-1.74-14,5.95-14.99,8.98,5.79-.85,13.73-2.1,14.99-8.98ZM1902.86,282.03c2.43-18.13,22.65-27.67,30.46-41.01,1.18-2.01,1.88-3.52,1.54-5.95-.64-.84-16.09,11.66-16.84,12.63-1.92,2.49-15.67,28.56-16.05,30.92-.17,1.01-.81,3.67.9,3.4ZM1434.03,242.08l-1.54,5.09,11.29,36.65c1.03,2.02-2.94,12.12,1.72,11.2,1.46-.29,2.16-7.03,2.39-8.61.48-3.3,1.8-13.2,1.3-15.95-1.22-6.76-6.49-9.02-9.56-14.51l-5.6-13.87ZM1780.91,245.08c-18.02,7.52-36.52,19.38-51.46,31.99-5.34,4.5-10.73,7.94-9.52,15.96,7.77.64,12.06-6.07,17.66-9.82,16.24-10.9,32.55-21.06,43.32-38.13ZM560.82,246.09c-4.83,1.59-2.78,23.23,3.35,12.35,2-3.55,1.27-13.87-3.35-12.35ZM2026.82,594.77c-1.09-12.34-.54-25.05-.03-37.5.58-14.12,5.33-53.01.25-64.12-3.64-7.96-19.9-23.57-26.68-30.29-23.07-22.85-48.22-43.81-71.52-66.4-44.94-43.58-56.79-78.26-29.77-137.7.36-.8,1.71-2.11.3-2.69-22.23,10.83-35.26,32.31-42.78,55.16-9.31,28.29-6.76,37.08,9.47,61.05,22.65,33.44,51.55,56.82,63.81,97.09,5.08,16.67,5.83,35.48,14.54,50.42,13.92,10.61,26.4,22.99,39.95,34,12.1,9.83,26.83,17.28,35.85,30.11l6.6,10.87ZM964.88,261.24c-4.96,1.5-17.39,24.12-12.77,27.36,1.97,1.38,5.35.45,7.14-.98,1.52-1.21,11.59-20.34,11.65-22.23.13-3.51-2.75-5.13-6.03-4.15ZM162.22,264.35c-7.54.41-36.61,1.99-37.57,12.35-.12,1.25,9.73,18.56,11.27,22.35,14.12,34.64,2.99,37.66-5.18,67.71-3.88,14.28,9.4,22.43,14.87,34.51,4.38,9.68,5.36,20.28,8.78,30.23,30.44-10.23,65.49,9.08,94.7-2.4,16.33-6.42,32.43-20.45,49.62-27.34,26.23-10.5,44.01-4.1,70.16-1.82,4.08.35,12.44,1.48,15.93.94,7-1.08,17.83-11.27,15.09-18.95-6.41-12.39-14.8-23.57-20.7-36.26-17.37-37.35-11.77-72.53-64.26-75.65-9.85-.59-20.17.69-30.02.03-12.1-.81-23.99-5.08-36.01-5.97-25.35-1.88-61.03-1.12-86.67.28ZM633.94,266.2c-1.03.28-2.8,1.99-2.58,3.21l3.42,3.62,2.45-5.37c-.88-1.44-1.56-1.92-3.28-1.46ZM2020.82,303.02c5.32-7.34,6.54-10.08,2.19-18.66-4.88-9.63-10.88-5.4-18.16-11.31-.13,2.83,2.65,4.54,3.5,6.98,3.09,8.82,2.57,17.28,12.47,22.99ZM117.59,287.19c-1.45,2.29,1.31,16.12,5.38,16.88,11.69,1.83,4.16-22.57-5.38-16.88ZM641.26,301.02c.18-4.64.31-10.92-3.98-13.98-.02,3.01.48,6.31,1.28,9.2.34,1.21,1.22,4.61,2.7,4.78ZM1683.95,340.99c2.59-1.69,5.7-.48,8.28-1.2,5.48-1.53,6.7-15.65,8.51-20.47,2.63-6.98,8.92-11.48,11.17-18.3-7.41,3.39-12.31,11.94-16.8,18.67-4.57,6.86-9.49,13.01-11.17,21.3ZM481.08,353.73c3.71-3.77-3.36-19.9-5.57-24.41-2.33-4.75-15.14-24.78-19.71-25.31-2.39-.28-5.09,1.14-5.27,3.72-.26,3.8,2.57,4.77,4,7.59,2.44,4.82,6.76,11.38,8.57,15.41,1.82,4.05,1.55,8.34,4.03,12.96,1.92,3.58,9.73,14.32,13.95,10.04ZM1875.88,407.93c-6.69-10.21-8.93-27.53-17.47-35.99-2.2-2.18-6.94-4.31-7.79-6.2-.99-2.18-.33-4.65-1.25-6.74-.74-1.69-3.23-2.92-4.54-6.46-4.44-12.05,1.01-21.94-14.68-27.29-5.04-1.72-25.79-4.21-29.01-1-5.73,5.72,8.98,12.88,12.76,16.24,2.09,1.85,5.29,4.89,6.96,7.03,3.89,4.98,6.08,13.92,9,16.98,1.77,1.86,9.74,5.06,12.94,7.05,7.91,4.94,15.75,9.07,20.9,17.08,3.42,5.32,5.24,11.78,9,16.98.9,1.25,1.02,2.78,3.18,2.31ZM776.22,324.01c-2.08.78-19.38,11.39-9.68,9.82,2.62-.42,11.3-8.05,9.68-9.82ZM656.26,327.01c-11.69,2.59-24.63,4.85-35.98,8.49-11.19,3.59-21.47,8.39-22.99,21.47l25.72-15.74c8.07-3.07,17.04-4.61,24.94-8.05.91-.4,10.29-4.44,8.31-6.17ZM702.25,336.98c-1.45-6.08-11.72-9.46-15.96-4.49,3.58,6.05,9.75,7.96,15.96,4.49ZM2028.48,331.16c-5.33,1.05,0,10.8,3.87,11.63,5.19-1.95.16-12.42-3.87-11.63ZM547.31,411.93c1.79-1.29,3.6-3.82,4.81-5.67,3.32-5.06,14.72-24.36,15.73-29.24,2.28-10.98-.83-24.82-.57-36.02l-4.51,23.95c-6.94,15.23-16.94,29.4-15.46,46.98ZM62.71,384.71l4.46.54c4.99-2.08,3.99-12.78-.67-13.88-3.5-.82-6.79,10.23-3.79,13.34ZM1333.04,479.87c1.15-5.97,3.36-11.1,2.9-17.35-.52-7.08-9.59-31.45-13.91-37.08-7.7-10.03-21.57-18.1-24.69-31.28-1.75-7.41-.36-17.36-5.27-23.2l.97,33.45c-17.81,22.87,7.15,22.17,20.35,30.67,12.14,7.81,20.09,21.87,19.7,36.34-.06,2.34-2.39,7.24-.05,8.44ZM1424.01,493.86c2.89-9.16,10.75-18.61,11.07-28.46.2-6.26-3.81-11.2-3.99-17.15-.25-8.17.62-17.2-.08-25.81-1.12-13.87-5.15-27.73-2.15-41.78-3.42-6.22-6.51.65-10.81,1.82-9.13,2.5-21.59-8.5-31.02-9.51,3.07,8.42,12.11,10.84,18.47,16,17.29,14,24.56,40.9,22.56,62.47-.51,5.5-3.2,11.06-4.03,16.95-1.09,7.7-.94,16.07-1.94,24.06-.25,1.97.22,1.45,1.91,1.41ZM1834.89,486.86c-7.9-8.27-19.27-13.18-28.71-19.75-31.6-22.01-55.69-53.53-51.27-94.14-5.33,6.42-8.57,14.21-13.57,20.9-3.24,4.32-7.01,8.35-10.88,12.1-17.94,17.37-39.85,30.76-57.5,48.44,28.92,5.6,57.48,12.65,86.6,17.35,6.95,1.12,14.57,1.17,21.7,2.29,18.27,2.87,35.93,7.75,53.65,12.81ZM2121.65,448.72c1.29-2.72,3.03-5.17,3.2-8.35.78-14.99-12.43-42.23-25.82-49.13-6.8-3.51-11.15-2.93-17.26-4.73-2.29-.67-4.69-3.72-7.67-4.32-6.72-1.35-16.28-.84-23.26-1.21l44.48,24.97c10.3,12.74,18.85,27.03,23.65,42.77h2.69ZM119.44,382.96c-.12,1.71-.09,3.37.45,5.03,1.3,3.98,11.89,16.31,16.08,13.03l1.31-2.41c-1.78-3.02-14.53-19.01-17.84-15.65ZM322.11,400.18c-5.61.94-12.06,6.92-4.79,9.3,2.44.8,20.53,1.83,23.56,1.47,3.65-.44,6.92-1.81,4.98-6-2.57-5.54-18.48-5.65-23.75-4.77ZM416.07,427.17c-4.5-4.11-15.51-3.28-21-4.47-4.86-1.05-12.5-8.02-18.45-10.53-6.6-2.78-15.1-5.36-22.25-5.22,3.28,3.29,7.53,3.98,11.47,7.01,7.47,5.74,9.88,12.19,19.98,16,11.86,4.46,10.96.83,20.15,0,1.26-.11,16.12,2.71,10.1-2.79ZM877.08,445.78c.69-1.1.04-3.53-.44-4.82-1.64-4.4-11.37-20.7-14.44-24.53-3.67-4.59-8.75-8.43-15-7.49-1.27,7.09,4.69,9.99,7.83,14.66,4.11,6.11,10.96,20.9,18.14,22.9.95.26,3.58-.18,3.91-.71ZM302.38,409.94c-9.42.04-15.58,9.54-22.52,14.95-3.79,2.95-8.04,4.87-11.47,8.01,1.69.35,2.91-.48,4.33-1.16,4.51-2.15,22.8-12.86,25.9-15.8,1.63-1.54,2.63-4.06,3.76-6ZM1880.37,419.14c-5.51.45,1.73,19.17,8.22,16.06,9.58-4.58-6.14-16.23-8.22-16.06ZM1587.98,443.9c5.31-2.26,9.93-5.52,14.46-9.02,1.47-1.14,12.91-10.43,11.51-11.96-7.74,5.13-18.01,10.33-23.98,17.48-.94,1.12-2.43,1.62-1.99,3.5ZM212.16,448.66c8.29-8.17-20.28-11.29-24.37-11.62-4.91-.4-24.4-1.22-19.87,7.87,1.75,3.51,15.64,1.64,19.99,2,5.19.43,20.87,5.08,24.25,1.74ZM662.25,445.9c.94-3.38,3.57-8.15-1.98-8.99-1.25,3.32-1.67,7.04,1.98,8.99ZM1467.31,459.18c-2.05,2.55-2.34,8.36,1.59,9.21,2.48.54,18.35-11.39,22.43-13.67,3.75-2.09,18.73-7.02,18.41-11.33-.12-1.67-4.65-4.11-6.4-4.2-4.59-.22-19.77,8.42-24.25,11.29-2.73,1.74-10.04,6.53-11.78,8.69ZM409.65,447.62c.65.78,4.92,3.16,6.03,3.08,8.18-2.5,3.3-11.97-3.78-10.79-3.92.65-4.56,4.95-2.25,7.71ZM445.69,447.26c-1.21,1.38-2.39,3.17-2.4,5.09.57,7.06,15.19,3.85,20.31,4.78,3.62.66,8.14,4.09,12.72,5.27,6.25,1.61,12.25,1.4,18.54,3.45,4.35,1.42,10.51,6.76,14.83,3.94,2.06-1.35,2.86-3.31,1.91-5.6-2.66-6.38-37.53-22.38-45.22-23.82-6.17-1.16-16.57,2.22-20.69,6.9ZM153.16,442.16c-5.6-4.68-12.23,8.05-3.75,10.33,5.42,1.45,7.4-7.27,3.75-10.33ZM918.2,456.89c5.56-3.46,7.38-9.85,4.97-15.98-5.56,3.46-7.38,9.85-4.97,15.98ZM1541.99,456.88c-3.52-9.15-14.58-17.4-23.95-11.38-2.31,7.38,18.61,13.16,23.95,11.38ZM132.17,455.04c-5.49,1.09-18.4,17.85-20.5,23.56-1.93,5.25-5.31,20.42-5.31,25.76,0,6.01,4.77,10.34,10.45,7.35,6.93-3.64,7.48-23.21,10.15-30.82,1.33-3.79,18.48-28.49,5.21-25.85ZM1635.95,460.9c-11.09-2.85-25.92-8.91-36.75-2.31-1.81,1.1-1.94,2.78-.65,4.41l16.9.88,20.5-2.98ZM1222.58,468.24c-5.22.05-16.99,26.83-7.87,30.57,4.58.79,10.36-19.12,10.93-22.88s1.59-6.66-3.05-7.69ZM1716.93,477.89c-10.32-1.85-20.48-6.97-30.74-8.75-2.92-.51-17.61-2.69-18.23.26,5.79,10.18,20.41,5.71,30.52,6.44,5.11.37,10.25,2.11,15.23,2.77,1.09.14,3.44,1.11,3.22-.72ZM893.69,470.91c-5.91,5.1,4.12,20.43,6.87,10.75,1.4-4.93-3.05-8.55-6.87-10.75ZM1812.9,493.86c3.54-3.14-16.46-9.64-18.79-9.76-9.88-.53-16.53,6.42-5.42,9.49,8.01,2.22,16-.55,24.22.27ZM1846.63,497.61c.58-.55.79-1.65,1.12-2.4.16-4.88-10.38-.78-12.86-.33,1.55,4.04,8.94,5.38,11.73,2.73ZM994.17,497.86c1.26,9.52-2.26,19.83-.56,29.02,1.02,5.51,12.44,29.5,18.05,16.9,2.15-4.83-7.32-16.96-9.68-22.27-3.3-7.41-3.84-13.61-6.12-20.87-.33-1.05-.26-3.02-1.69-2.78ZM1876.35,505.37c-13.63.87,3.44,20.11,10.18,4.98-.84-4.64-6.25-5.23-10.18-4.98ZM1895.88,553.8c5.59,0,14.01-3.43,14.94-9.53,2.08-13.66,1.25-29.16-14.43-33.43,2.02,5.65,5.09,10.68,6.24,16.75,1.08,5.72,2.64,17.14-.9,21.57-1.84,2.31-4.52,2.51-5.84,4.64ZM640.57,544.51c2.19,1.84,6.61,1.37,7.54-1.35,1.09-3.18.65-17.15-3.53-18.19-7.52-1.88-8.91,15.42-4.01,19.55ZM1203.1,554.81c6.99-.28,10.43-17.92,4.39-18.94-5.08-.86-6.62,15.43-4.39,18.94ZM1347.06,540.83c-9.28,14.38-20.35,31.54-25.46,48-1.35,4.36-5.24,18.17,1.14,19.84,5.68,1.49,8.01-15.96,9.55-20.14,5.96-16.17,11.74-26.5,15.31-44.65.2-1.03,1.31-3.28-.55-3.04ZM87.95,545.16c-2.36,0-12.58,12.52-11.06,15.63,5.43,11.07,23.51-15.63,11.06-15.63ZM1952.57,549.95l-2.22,1.86c-4.43,8.93,16.45,15.89,22.17,18.82,3.31,1.7,11.89,10.13,14.86,4.15,2.69-5.41-8.96-12.69-13.15-14.85-3.49-1.81-7.8-2.78-11.41-4.58-3.1-1.54-7.12-6.27-10.24-5.4ZM414.99,566.15c-4.83-4.07-14.92-2.58-21.01-3.48-8.16-1.2-19.55-4.77-27.17-4.9-16.46-.28-43.74,9.64-58.1,17.85-16.58,9.48-27.52,23.4-46.79,30.17-20.5,7.2-38.27,4.14-59.36,4.11l-4.94,45.07c4.66,9.49,11.18,17.74,15.65,27.37,8.8,18.99,7.47,33.84,26.22,46.73,10.5,7.22,48.21,27.93,59.56,28.49,12.56.62,27.16-2.63,40.87-1.97s25.97,4.34,38.9,5.08c12.67.73,25.34-2.06,38.01-1.03,6.57.54,16.07,4.8,21.01,4.8,6.55,0,28.61-12.06,36.52-15.28,10.66-4.33,23.17-7.29,33.22-11.76,7.66-3.41,11.17-6.79,9.29-15.81-1.6-7.67-15.29-28.07-19.4-37.55-9.06-20.85-9.87-40.09-16.63-60.31-7.07-21.17-14.84-17.17-31.52-26.45-6.72-3.74-14.46-9.65-20.02-14.96-4.44-4.24-9.7-12.31-14.3-16.18ZM1482,560.81c-4.79-.63-16.56,11.66-11.92,14.91,4.09,2.87,13.8-12.84,11.92-14.91ZM2000.14,586.47c2.37,2.05,4.99,1.16,5.55-2.01-1.41-3.41-3.75-6.38-7.84-5.66-.35,2.45.4,6.02,2.3,7.67ZM1043.87,591.93c-1.04.27-3.35,2.54-3.61,3.55-.83,3.18,12.35,11.99,15.45,9.39,5.88-4.92-6.31-14.41-11.84-12.94ZM41.18,594.92c-4.37,1.23-13.1,18.71-13.64,23.43-.5,4.38,1.21,13.63,6.47,14.42,8.3,1.24,3.58-7.89,3.41-11.56-.39-8.63,8.97-14.63,9.56-21.33.26-2.95-2.76-5.81-5.81-4.95ZM624.9,603.83l-2.49,3.25c3.67,3.66,8.14,19.25,12.56,20.5,4.75,1.35,5.08-3.16,3.75-6.79-.41-1.11-10.28-14.42-11.45-15.52-.71-.67-1.12-1.7-2.37-1.44ZM964.92,641.48c.9-1.18,1.21-2.52,1.04-3.99-.58-5.21-14.62-23.73-18.81-28.2-.9-.96-5.9-6.71-6.97-5.52-.81,7.52,1.41,13.96,5.17,20.3,1.58,2.66,12.33,16.62,14.28,17.74,2.09,1.2,3.23,1.07,5.28-.33ZM1180.34,611.01c-1.78,3.24-2.57,7.87,2.26,7.84,7.14-.04,6.14-13.3-2.26-7.84ZM2016.82,625.74c1.49-4.59,3.9-10.35-.98-13.98,1.08,4.47-3.29,10.78.98,13.98ZM1085.79,629.08c-3.74-3.93-11.8-11.14-16.17-14.3-1.35-.97-2.63-2.26-4.48-2-.87.72,12.95,14.84,14.5,15.97,2.4,1.75,10.84,5.25,6.15.33ZM487.3,614.77c-.65-.56-2.65-.17-2,1.49,8.44,13,4.92,30.57,9.55,44.47.57,1.72.04,2.39,2.46,1.98-1.13-12.54,8.56-21.24.84-33.31-1.41-2.21-3.68-3.66-5.25-5.74-1.19-1.57-5.07-8.45-5.6-8.9ZM1519.97,651.71l-.18-14.26c-4.17-4.92-7.72-10.16-15.08-8.49-3.56.81-5.12,4.9-7.42,5.58-2.47.73-10.73-.91-11.29,1.72,3.51,7.97,13.4,5.95,19.57,8.4,4.2,1.67,7.75,8.52,14.39,7.05ZM1165.1,632.75c-10.92,4.21-20.57,6.72-32.47,5.98-5.57-.35-21.88-5.12-25.52-1.51-3.29,3.26,1.45,7.23,4.76,8.27,5.81,1.83,26.75,3.98,32.65,3.15s14.75-7.75,18.59-12.4c.93-1.13,2.43-1.61,1.99-3.49ZM1532.73,675.44c2.84-2.73,3.76-17.95,3.17-22.13-.81-5.78-5.91-13.36-9.9-17.57l-.94,34.41c.3,3.78,4.09,8.74,7.67,5.29ZM128.2,665.48c1.65-1.65,1.43-6.72.99-9.01l-7.74-16.72c-.97,6.48-5.89,20.1-1.07,25.53,1.75,1.97,6.06,1.97,7.82.21ZM2264.45,668.43c2.83-3.42.82-6.5-2.19-8.71-1.75-1.28-18.33-9.65-20.08-9.9-6.47-.92-28.17.55-32.93,4.88-6.36,5.79-.41,13.73,5.97,16.07,7.12,2.61,9.76.9,16.01.9,6.76,0,29.28,1.52,33.22-3.24ZM2176.46,662.03c-4.89.1-22.4,6.48-25.67,10.17-3.93,4.43-.72,6.4,4.23,6.25,3.43-.1,28.79-8.33,30.73-10.27.83-.83,1.78-1.26.56-2.5-.78-1.18-8.21-3.69-9.85-3.66ZM202.27,669.86c-1.48-2.34-8.69-.59-6.4,3.85,2.55,4.94,9.11.43,6.4-3.85ZM1386.02,713.67c2.57-6.11,4.39-9.49,1.8-16.27-6.91-18.09-24-.74-6.36,8.35l4.55,7.92ZM2369.72,705.69l-45.98-13.99c-.19.15,1.14,2.59,1.72,3.03,2.93,2.24,25.86,13.79,29.21,14.5,4.83,1.02,12.39,1.26,15.05-3.54ZM2546.43,728.42c3.37-3.36.43-7.37-2.29-9.72-12.99-11.22-48.35-27.62-65.03-21.09-4.81,1.88-5.96,7.34-3.32,11.47,3.1,4.85,35.1,10.84,42.88,13.09,5.72,1.66,23.63,10.37,27.75,6.25ZM2025.58,699.95c-4.87-4.36-12.81,2.8-8.81,8.3,4.99,6.87,14.7-3.02,8.81-8.3ZM1412.02,727.66c2.43-6.18,6.88-11.88,6-18.97-1.56.81-2.79,4.35-3.47,6.01-1.02,2.5-2.48,6.37-3.07,8.93-.23,1.02-1.43,4.19.54,4.04ZM2004.84,727.67c-6.88-2.36-14.66,3.43-20.3,7.18-15.55,10.34-27.62,23.03-32.4,41.56-1.31,5.09-5.74,20.24,2.37,20.99,3.19.29,14.91-14.1,17.31-17.3,8.78-11.71,4.69-16.79,9.62-26.35,1.84-3.56,25.77-23.48,23.39-26.07ZM470.33,767.62c2.55.24,4.86,1.15,7.5,1.09,10.5-.21,37.22-10.99,44-19.06,2.36-2.8,11.76-22.42,4.44-20.59-3.91.97-8.29,10.45-11.41,13.62-5.57,5.67-11.46,6.89-17.58,10.41-8.82,5.08-15.3,10.28-25.45,12.55-1.55.35-1.75-.68-1.5,1.97ZM1274.57,730.68c-9.11,8.59-19.25,28.58-13.72,40.67,6.3,13.78,9.09-12.29,9.69-14.75,2.15-8.69,11.14-17.49,4.03-25.93ZM226.76,744.3c7.06,7.69,22.28,15.14,31.65,19.82,4.5,2.25,18.83,12.74,21.76,2.81,3.46-11.72-12.63-11.57-19.18-14.37-4.42-1.89-8.8-7.06-13.29-9.7-4.1-2.41-8.7-3.94-12.99-6-1.52-.73-2.7-2.62-4.02-3.02-6.78-2.04-8.16,5.84-3.92,10.46ZM326.12,763.89c-2.55-2.46-7.34-.92-9.3,1.76-.82,9.5,14.72,3.47,9.3-1.76ZM171.43,763.63c-1.1,2.65-2.08,13.02,2.46,11.99,3.57-.81,3.53-13.49-2.46-11.99ZM354.08,764.81c-2.68.79-3.6,4.54-2.21,6.81s13.43,8.03,16.45,8.55,11.27-.09,14.33-.76c6.93-1.52,5.58-8.08-.27-10.3-3.01-1.14-26.09-4.95-28.29-4.3ZM1022.16,768.63c-.15,2.77-.22,5.05.77,7.72,1.55,4.15,12.55,13.43,16.24,18.74,8,11.49,13.58,29.14,21.53,39.43,2.04,2.64,3.95,4.13,7.44,2.58,3-2.97,1.61-5.24.46-8.49-2.73-7.76-15.05-29.72-19.84-37.12-5.6-8.64-15.91-21.74-26.62-22.85ZM419.59,779.38c2.59,2.55,14.58.71,15.61-2.42,3.73-11.36-23.98-5.83-15.61,2.42ZM1391.56,775.64c-2.1.45-9.77,18.78-10.28,21.7-.75,4.32-.55,12.89,5.76,9.79,4.19-2.06,2.58-9.94,3.23-13.78.29-1.7,8.55-19.27,1.29-17.71ZM174.42,838.58c-8.02.13-5.67,11.38-5.98,16.98l4-8.47,1.98-8.5Z"/>
  </g>
</svg>