<?xml version="1.0" encoding="UTF-8"?>
<svg id="Layer_2" data-name="Layer 2" xmlns="http://www.w3.org/2000/svg" viewBox="0 0 1659.43 487.14">
  <g id="Layer_1-2" data-name="Layer 1">
    <path d="M575.33,273.68L686.79,10.54h123.46v265.54L921.72,10.54h141.43l-220.54,464.09h-137.84v-234.44l-98.28,234.44h-141.43L435.09,10.54h136.64l3.6,3.59v259.56ZM1495.18,143.97c-24.25-166.5-249.21-178.3-357.64-87.91-92.33,76.97-131.08,244.99-67.92,349.92,57,94.72,207.73,109.75,282.38,27.98l-2.37,40.67h89.89l53.94-255.97h-188.18l-22.77,100.47h64.72c-22.61,63.01-133.49,70.28-156.95,4.72-21.13-59.05,4.73-173.36,69.04-198.91,44.51-17.69,100.31-4.62,99.9,50.65h139.04c-3.74-10.35-1.52-21.06-3.06-31.63ZM25.17,10.54L0,132.54h127.05L55.14,474.63h146.23l69.76-341.84,129.1-.36,23.64-116.47-3.15-5.42H25.17ZM1611.91,132.32c70.04-9.53,60.24-118.89-13.43-114.06-79.45,5.21-69.5,125.35,13.43,114.06ZM1565.72,52.76c32-54.49,111.12,7.7,64.37,53.47-2.67-10.31-3.81-22.2-11.98-29.92,16.76-4.17,7.17-29.89-3.61-29.89h-34.76v59.81h14.4s1.21-23.95,1.21-23.95c14.8.09,14.9,12.74,18.27,23.64l16.47.31c-36.99,36.21-88.67-12.09-64.37-53.47ZM1594.12,58.37c23.98-3.24,21.39,15.07.02,14.37l-.02-14.37Z"/>
  </g>
</svg>