<?xml version="1.0" encoding="UTF-8"?>
<svg id="Capa_2" data-name="Capa 2" xmlns="http://www.w3.org/2000/svg" viewBox="0 0 167.69 73.36">
  <g id="Capa_1-2" data-name="Capa 1">
    <path d="M54.09.57c.55-.09,1.26-.17,2.17-.17,1.12,0,1.94.26,2.46.73.48.42.77,1.05.77,1.83s-.23,1.42-.68,1.87c-.6.64-1.57.96-2.68.96-.34,0-.65-.01-.91-.08v3.51h-1.13V.57ZM55.22,4.8c.25.06.56.09.94.09,1.37,0,2.2-.66,2.2-1.87s-.82-1.72-2.07-1.72c-.49,0-.87.04-1.07.09v3.41ZM66.34,6.03c0,2.33-1.61,3.34-3.13,3.34-1.7,0-3.02-1.25-3.02-3.24,0-2.11,1.38-3.34,3.12-3.34s3.03,1.31,3.03,3.24ZM61.34,6.1c0,1.38.79,2.42,1.91,2.42s1.91-1.03,1.91-2.44c0-1.07-.53-2.42-1.88-2.42s-1.94,1.25-1.94,2.44ZM68.14,2.94l.83,3.2c.18.7.35,1.35.47,2h.04c.14-.64.35-1.31.56-1.99l1.03-3.21h.96l.97,3.15c.23.75.42,1.42.56,2.05h.04c.1-.64.27-1.3.48-2.04l.9-3.16h1.13l-2.03,6.29h-1.04l-.96-3c-.22-.7-.4-1.33-.56-2.07h-.03c-.16.75-.35,1.4-.57,2.08l-1.01,2.99h-1.04l-1.9-6.29h1.17ZM77.76,6.29c.03,1.55,1.01,2.18,2.16,2.18.82,0,1.31-.14,1.74-.33l.2.82c-.4.18-1.09.39-2.09.39-1.94,0-3.09-1.27-3.09-3.17s1.12-3.39,2.95-3.39c2.05,0,2.6,1.81,2.6,2.96,0,.23-.03.42-.04.53h-4.42ZM81.12,5.47c.01-.73-.3-1.86-1.59-1.86-1.16,0-1.66,1.07-1.75,1.86h3.34ZM83.64,4.9c0-.74-.01-1.38-.05-1.96h1l.04,1.24h.05c.29-.85.97-1.38,1.74-1.38.13,0,.22.01.33.04v1.08c-.12-.03-.23-.04-.39-.04-.81,0-1.38.61-1.53,1.47-.03.16-.05.34-.05.53v3.35h-1.13v-4.33ZM88.4,6.29c.03,1.55,1.01,2.18,2.16,2.18.82,0,1.31-.14,1.74-.33l.2.82c-.4.18-1.09.39-2.09.39-1.94,0-3.09-1.27-3.09-3.17s1.12-3.39,2.95-3.39c2.05,0,2.6,1.81,2.6,2.96,0,.23-.03.42-.04.53h-4.42ZM91.75,5.47c.01-.73-.3-1.86-1.59-1.86-1.16,0-1.66,1.07-1.76,1.86h3.34ZM99.71,0v7.61c0,.56.01,1.2.05,1.62h-1.03l-.05-1.09h-.03c-.35.7-1.12,1.24-2.14,1.24-1.52,0-2.69-1.29-2.69-3.2-.01-2.09,1.29-3.38,2.82-3.38.96,0,1.61.46,1.9.96h.03V0h1.14ZM98.56,5.5c0-.14-.01-.34-.05-.48-.17-.73-.79-1.33-1.65-1.33-1.18,0-1.88,1.04-1.88,2.43,0,1.27.62,2.33,1.86,2.33.77,0,1.47-.51,1.68-1.37.04-.16.05-.31.05-.49v-1.09ZM104.31,9.23c.03-.43.05-1.07.05-1.62V0h1.13v3.95h.03c.4-.7,1.13-1.16,2.14-1.16,1.56,0,2.67,1.3,2.65,3.21,0,2.25-1.42,3.37-2.82,3.37-.91,0-1.64-.35-2.11-1.18h-.04l-.05,1.04h-.99ZM105.49,6.71c0,.14.03.29.05.42.22.79.88,1.34,1.72,1.34,1.2,0,1.91-.98,1.91-2.42,0-1.26-.65-2.34-1.87-2.34-.78,0-1.51.53-1.74,1.4-.03.13-.07.29-.07.47v1.13ZM112.08,2.94l1.38,3.72c.14.42.3.91.4,1.29h.03c.12-.38.25-.86.4-1.31l1.25-3.69h1.21l-1.72,4.49c-.82,2.16-1.38,3.26-2.16,3.94-.56.49-1.12.69-1.4.74l-.29-.96c.29-.09.66-.27,1-.56.31-.25.7-.69.96-1.27.05-.12.09-.21.09-.27s-.03-.16-.08-.3l-2.33-5.8h1.25ZM47.13,25.17c-1.67-.86-3.54-1.39-4.97-1.75-1.41-.36-2.9-.82-4.54-1.4-.53-.18-1.07-.36-1.59-.55-1.05-.37-2.15-.75-3.23-1.07-2.28-.62-4.58-.91-6.65-.83h-.02c-2.34.13-4.73.62-6.96,1.13-2.94.68-6.35,1.54-9.47,3.07-1.24.61-2.67,1.37-3.8,2.46-.78.73-1.98,2.22-1.31,3.94.66,1.73,2.21,2.93,3.4,3.64,1.22.73,2.64.97,4.01,1.21.2.03.4.07.61.11.52.09,1.04.2,1.55.3.41.09.84.17,1.27.25,1.19.22,2.34.45,3.39.97,1.25.62,2.5,1.42,3.7,2.18.69.44,1.4.89,2.1,1.3,3.39,2.12,7.33,1.98,11.14,1.85,1.4-.05,2.86-.1,4.25-.04.59.03,1.21.09,1.71.14,1.13.11,1.71.45,1.73,1.02-.01,1.02-1.31,1.96-2.14,2.32-6.92,2.38-12.81,2.44-17.51.18-1.59-.74-2.98-1.85-4.32-2.93-1.25-1-2.55-2.04-4.01-2.78-4.25-2.24-9.61-1.82-13.33,1.04-1.18.89-1.94,2.12-2.07,3.37-.2,1.28.29,3.1,2.28,4.37,1.13.7,2.41,1.12,3.65,1.52.51.16,1.03.34,1.54.52,5.84,2.13,12.07,3.22,18.12,3.22,2.66,0,5.28-.21,7.82-.64,1.98-.36,4.11-.96,6.53-1.84,2.98-1.18,5.35-3.63,6.34-6.53.67-1.7.7-3.62.09-5.27-1.13-3.22-4.99-3.99-7.54-4.5-.74-.16-1.49-.29-2.22-.42-1.24-.21-2.53-.43-3.74-.83-1.21-.45-2.37-1.03-3.49-1.59-.83-.42-1.69-.85-2.56-1.22-3.62-1.52-7.37-2.29-11-3.03-1.19-.24-2.43-.49-3.64-.77-.5-.11-1.14-.36-1.33-.74-.07-.14-.07-.28,0-.44.21-.37.83-.68,1.82-.9.61-.14,1.19-.18,1.73-.2,1.55-.07,3.13-.23,4.66-.39,4.08-.42,8.3-.86,12.26.53,1.07.38,1.92.92,2.53,1.58.89.94,1.32,2.13,1.66,3.27.19.66.4,1.29.8,1.79,2.25,2.64,8.9.97,9.65.77,1.27-.34,2.44-.97,3.37-1.81.75-.7,1.07-1.47.95-2.28-.14-.94-1.05-2.31-3.16-3.32ZM94.02,23.6c-2.2-1.2-4.71-1.28-7.14-1.34-1.14-.03-2.33-.07-3.45-.22-1.78-.25-3.47-.54-5.27-.85l-.43-.07c-1.02-.17-2.11-.31-3.19-.22h-.01c-3.16.2-4.21,1.86-4.56,2.83-.57,1.81-.01,4.16.47,6.24.19.79.36,1.54.48,2.24.37,1.89.03,3.7-.98,5.11,0,0,0,0,0,0-.4.67-.98,1.45-1.6,2.28-1.7,2.29-3.82,5.14-3.46,7.42.59,2.99,5.76,2.74,7.52,2.42,2.48-.36,4.25-2.38,4.2-4.82,0-.34,0-.69-.02-1.03-.03-.97-.06-1.98.23-2.9.38-1.4,1.71-2.44,3.16-2.46,1.04,0,1.92.39,2.54,1.12.82.94,1.18,2.42.96,3.95-.26,1.97-.37,3.97.57,5.28.79.98,2.02,1.52,3.66,1.61.2.01.4.02.6.02,2.03,0,3.72-.7,4.81-2,1.18-1.41,1.54-3.4,1-5.61-.75-2.65-2.88-4.89-5.43-5.72h-.04c-.36-.11-1.04-.3-1.11-.57-.02-.09.04-.21.19-.34.4-.29.92-.37,1.44-.44.1-.01.2-.03.3-.05,1.89-.27,3.84-.55,5.45-1.74,1.03-.76,1.84-1.82,2.29-2.99.48-1.26.5-2.54.07-3.72-.53-1.35-1.68-2.57-3.24-3.45ZM92.03,28.83c-.42.56-1.09,1.05-2.05,1.52-3.83,1.89-7.77,2.7-11.41,2.31-.49-.06-.96-.14-1.36-.39-.46-.28-.64-.79-.44-1.25.46-.97,2.08-2,4.56-2.88,2.25-.81,4.48-1.25,5.59-1.32h.01c.49-.03.99-.05,1.5-.05.83,0,1.67.06,2.46.27.52.13,1.18.45,1.35.93.09.27.02.56-.21.86ZM166.5,19.79c-.83-.75-2.78-1.84-6.59-.69-4.33,1.41-6.67,5.75-8.37,9.81-.12.27-.23.56-.34.83-.36.9-.72,1.83-1.38,2.55-.39.45-1.01.67-1.58.56-.5-.09-.87-.4-1.05-.88-.13-.32-.18-.7-.24-1.07l-.02-.11c-.18-1.09-.4-2.38-.71-3.68-.74-2.97-1.99-5.58-3.72-7.75-1-1.2-2.12-2.27-3.55-1.97h-.02c-1.99.49-3.37,3.03-3.65,5.16-.31,1.62-.02,3.22.81,4.52.85,1.34,1.97,2.57,3.04,3.76.62.68,1.26,1.39,1.83,2.1.09.12.18.23.28.35,1.53,1.93,3.63,4.58,3.08,7.07-.4,1.8-2.06,2.86-3.03,3.32-.55.29-1.14.53-1.72.76-.78.32-1.6.64-2.33,1.12-1.63,1.11-2.2,2.52-1.68,4.18.89,2.71,3.94,4.21,6.68,4.21.42,0,.83-.04,1.23-.11,2.21-.4,4.15-1.99,5.46-4.47.56-1.03.91-2.08,1.28-3.18.15-.46.31-.93.48-1.39.74-1.96,1.76-4.52,3.11-6.98,2-3.67,4.24-5.23,6.83-7.03,1.23-.86,2.51-1.74,3.89-2.94,1.16-1.04,2.34-2.19,2.87-3.66.61-1.58.25-3.37-.9-4.44ZM121.81,43.37c-.37-.14-.77-.24-1.15-.34-.41-.1-.83-.21-1.21-.36-.24-.13-.29-.22-.28-.25.03-.16.7-.36,1.43-.44l.29-.05c.93-.14,1.89-.29,2.81-.56,1.06-.31,2.07-.88,2.92-1.65,1.11-.99,1.76-2.3,1.79-3.58.11-2.27-2.12-3.66-4.05-4.15-1.61-.41-3.36-.41-5.04-.41-1.04,0-2.12,0-3.15-.09-.73-.06-1.47-.14-2.16-.22-.73-.07-1.47-.18-2.18-.29-1.53-.23-3.12-.47-4.69-.32h-.02c-1.21.15-2.58.37-3.66,1.04-1.12.7-1.98,1.81-2.29,2.96-.39,1.42-.15,2.94.08,4.42.04.26.08.51.12.76.28,1.81-.12,3.03-.81,4.84-.05.14-.1.28-.15.43-.22.6-.43,1.17-.62,1.78-.26.83-.58,1.86-.53,2.89.11,1.48,1.17,3.31,5.63,3.64,1.38.09,2.97.14,4.43-.35.82-.28,1.42-.79,1.69-1.44.26-.61.22-1.3-.11-2-.18-.39-.42-.77-.64-1.13-.22-.35-.44-.71-.62-1.07-.53-1.06-.54-1.94-.03-2.54.67-.81,2.23-1.07,3.79-.63,1.63.48,3.06,1.69,3.74,3.15.23.5.44.99.64,1.46.94,2.25,1.75,4.19,4.87,4.76.99.19,1.93.29,2.83.29.84,0,1.64-.08,2.39-.25,1-.23,1.75-.75,2.16-1.51.44-.8.47-1.82.09-2.87-1.32-3.36-4.97-4.82-8.29-5.93ZM117.83,39.27c-1.19.13-2.75.27-4.3.21-.69-.01-1.42-.06-2.09-.31-.6-.21-1.03-.61-1.18-1.08-.13-.42-.04-.87.26-1.31.59-.76,1.57-1.33,2.62-1.54h.01c.89-.15,1.89-.15,2.87,0,.86.16,1.72.45,2.54.74.29.1.58.2.87.29.2.07.4.13.6.2.4.13.82.27,1.21.41.33.13.68.28.92.54.18.2.25.41.2.63-.1.41-.58.75-1,.9-.7.28-1.48.28-2.23.28-.43,0-.87,0-1.29.04ZM66.68,34.5c-.06-.9-.77-1.67-2.11-2.27-2.7-1.18-5.56-1.66-8.06-1.35h-.02c-.65.1-1.3.27-1.93.43h-.04c-.85.23-1.83.53-2.66,1.12-.67.48-.97,1.01-.91,1.57.17,1.39,2.59,2.45,3.07,2.65,2.11.83,4.1,1.26,5.95,1.26.42,0,.82-.02,1.22-.06,1.03-.05,2.54-.21,3.85-.98,1.23-.69,1.64-1.67,1.62-2.37ZM31.04,65.43l-9.55-10.88H2.25v18.55h11.24l-.25-12.91h.86l12.48,12.91h8.95l12.48-12.91h.76l-.25,12.91h11.24v-18.55h-19.13l-9.6,10.88ZM104.71,55.53c-2.64-1.05-5.59-1.24-19.73-1.24s-17.09.18-19.73,1.24c-1.48.59-2.39,1.43-2.94,2.71-.52,1.21-.74,2.84-.74,5.47,0,4.8.53,7.15,3.69,8.41,2.64,1.05,5.61,1.24,19.83,1.24s17.02-.2,19.63-1.24c3.14-1.25,3.69-3.67,3.69-8.31s-.55-7.04-3.69-8.29ZM95.93,67.02c-1.26.48-2.99.58-10.85.58-8.28,0-9.82-.08-11.04-.57-1-.41-1.09-1.04-1.09-2.74,0-1.98.16-2.88.61-3.32h0c.8-.82,1.87-.9,11.42-.9,8.89,0,10.15.08,11.14.68.59.38.89,1.04.89,3.57,0,2.04-.35,2.41-1.08,2.71ZM148.56,54.55l-9.6,10.88-9.55-10.88h-19.23v18.55h11.24l-.25-12.91h.86l12.48,12.91h8.95l12.48-12.91h.76l-.25,12.91h11.24v-18.55h-19.13Z"/>
  </g>
</svg>