<?xml version="1.0" encoding="UTF-8"?>
<svg id="Layer_2" data-name="Layer 2" xmlns="http://www.w3.org/2000/svg" viewBox="0 0 594.04 198.43">
  <defs>
    <style>
      .cls-1 {
        fill: #1c1c1c;
      }
    </style>
  </defs>
  <g id="Capa_1" data-name="Capa 1">
    <g>
      <g>
        <path class="cls-1" d="M166.98,27.71c-5.93-3.05-12.53-4.92-17.62-6.21-5-1.29-10.26-2.91-16.07-4.95-1.88-.63-3.79-1.29-5.64-1.93-3.74-1.3-7.6-2.64-11.45-3.78-8.09-2.19-16.24-3.21-23.56-2.96h-.06c-8.3.44-16.76,2.19-24.67,4.01-10.43,2.42-22.48,5.45-33.53,10.86-4.41,2.15-9.45,4.86-13.45,8.7-2.75,2.59-7.02,7.86-4.65,13.96,2.35,6.12,7.85,10.38,12.04,12.88,4.33,2.58,9.35,3.45,14.2,4.29.72.12,1.43.25,2.15.38,1.83.33,3.69.71,5.49,1.08,1.47.3,2.98.61,4.49.9,4.2.77,8.28,1.61,12,3.42,4.44,2.21,8.85,5.02,13.12,7.73,2.44,1.55,4.96,3.16,7.43,4.61,11.99,7.5,25.95,7.01,39.45,6.54,4.97-.17,10.12-.35,15.06-.13,2.09.09,4.28.32,6.04.51,3.99.38,6.05,1.6,6.12,3.6-.04,3.62-4.66,6.95-7.57,8.21-24.5,8.42-45.37,8.63-62.04.63-5.63-2.64-10.55-6.57-15.31-10.37-4.44-3.55-9.03-7.22-14.22-9.86-15.05-7.93-34.03-6.44-47.21,3.7-4.19,3.15-6.86,7.51-7.32,11.92-.72,4.54,1.01,11,8.08,15.5,4.01,2.49,8.55,3.97,12.94,5.39,1.8.58,3.66,1.19,5.45,1.86,20.7,7.54,42.77,11.42,64.19,11.42,9.42,0,18.71-.75,27.7-2.26,7.01-1.26,14.56-3.38,23.12-6.5,10.56-4.19,18.96-12.85,22.45-23.15,2.37-6.02,2.49-12.83.33-18.67-4-11.42-17.68-14.13-26.72-15.93-2.61-.58-5.28-1.04-7.87-1.48-4.41-.75-8.96-1.53-13.26-2.96-4.27-1.59-8.39-3.65-12.37-5.65-2.94-1.47-5.98-3-9.09-4.33-12.82-5.39-26.11-8.1-38.97-10.72-4.23-.86-8.59-1.75-12.9-2.73-1.76-.38-4.04-1.29-4.71-2.61-.25-.49-.26-1.01-.01-1.57.75-1.32,2.93-2.39,6.46-3.18,2.16-.48,4.23-.63,6.14-.72,5.49-.24,11.09-.82,16.49-1.38,14.45-1.5,29.4-3.05,43.43,1.88,3.78,1.36,6.79,3.24,8.95,5.61,3.14,3.35,4.68,7.55,5.86,11.6.68,2.33,1.4,4.57,2.85,6.36,7.99,9.35,31.54,3.44,34.19,2.73,4.51-1.22,8.63-3.44,11.93-6.42,2.67-2.49,3.81-5.2,3.37-8.07-.51-3.34-3.73-8.19-11.21-11.75Z"/>
        <path class="cls-1" d="M333.07,22.14c-7.79-4.27-16.68-4.52-25.28-4.76-4.05-.11-8.24-.23-12.22-.78-6.3-.89-12.3-1.92-18.66-3l-1.54-.26c-3.6-.59-7.47-1.08-11.31-.76h-.05c-11.2.72-14.92,6.58-16.15,10.02-2.01,6.41-.05,14.75,1.68,22.1.66,2.81,1.29,5.47,1.68,7.93,1.33,6.69.09,13.12-3.47,18.11,0,0-.01.02-.02.03-1.42,2.36-3.48,5.14-5.67,8.08-6.02,8.12-13.52,18.22-12.26,26.29,2.1,10.58,20.4,9.71,26.63,8.58,8.78-1.26,15.04-8.44,14.88-17.06.01-1.21-.03-2.44-.07-3.64-.11-3.44-.23-7,.83-10.26,1.35-4.97,6.07-8.63,11.2-8.72,3.67.02,6.79,1.39,9.01,3.95,2.89,3.34,4.17,8.56,3.42,13.98-.92,6.97-1.31,14.06,2.03,18.71,2.8,3.46,7.16,5.37,12.96,5.7.72.05,1.42.07,2.12.07,7.18,0,13.18-2.48,17.04-7.08,4.2-5,5.46-12.06,3.54-19.88-2.64-9.37-10.19-17.32-19.23-20.26l-.14-.04c-1.29-.36-3.7-1.04-3.92-1.99-.08-.33.15-.74.68-1.21,1.4-1.02,3.28-1.3,5.09-1.56.36-.05.72-.11,1.05-.16,6.69-.96,13.6-1.95,19.29-6.18,3.65-2.69,6.53-6.45,8.1-10.58,1.7-4.46,1.78-9.01.23-13.16-1.87-4.77-5.95-9.1-11.49-12.21ZM326.01,40.65c-1.49,1.97-3.87,3.73-7.27,5.37-13.55,6.71-27.54,9.55-40.42,8.2-1.73-.23-3.4-.5-4.83-1.38-1.63-.97-2.26-2.8-1.55-4.42,1.65-3.45,7.38-7.07,16.15-10.22,7.98-2.86,15.86-4.43,19.82-4.68h.05c1.74-.1,3.52-.18,5.31-.18,2.95,0,5.91.22,8.7.95,1.83.45,4.19,1.58,4.8,3.3.33.95.08,1.97-.75,3.05Z"/>
        <path class="cls-1" d="M589.83,8.63c-2.93-2.66-9.86-6.51-23.36-2.44-15.35,5-23.61,20.38-29.67,34.77-.42.97-.82,1.98-1.2,2.96-1.26,3.19-2.56,6.49-4.88,9.02-1.37,1.58-3.58,2.37-5.61,2-1.77-.32-3.08-1.43-3.71-3.11-.44-1.12-.65-2.47-.85-3.78l-.06-.39c-.62-3.87-1.41-8.45-2.52-13.03-2.64-10.51-7.07-19.75-13.17-27.47-3.54-4.26-7.52-8.04-12.59-6.96h-.07c-7.06,1.73-11.93,10.73-12.92,18.29-1.1,5.72-.08,11.41,2.87,16.02,3.03,4.76,6.97,9.12,10.78,13.33,2.19,2.42,4.46,4.92,6.49,7.45.32.41.65.82.99,1.25,5.43,6.84,12.86,16.21,10.92,25.03-1.4,6.39-7.31,10.12-10.72,11.78-1.96,1.04-4.05,1.88-6.08,2.7-2.78,1.12-5.65,2.28-8.25,3.97-5.78,3.95-7.78,8.93-5.95,14.82,3.16,9.59,13.96,14.92,23.68,14.92,1.49,0,2.95-.13,4.36-.38,7.85-1.41,14.71-7.03,19.33-15.83,1.99-3.65,3.22-7.35,4.53-11.28.54-1.61,1.09-3.28,1.7-4.94,2.62-6.93,6.23-16,11.03-24.71,7.09-13,15.01-18.51,24.18-24.89,4.37-3.04,8.88-6.18,13.77-10.41,4.12-3.7,8.29-7.75,10.17-12.96,2.15-5.61.87-11.93-3.18-15.72Z"/>
        <path class="cls-1" d="M431.51,92.17c-1.32-.49-2.71-.85-4.06-1.19-1.44-.37-2.92-.75-4.29-1.29-.84-.44-1.02-.76-1-.89.11-.55,2.47-1.28,5.08-1.55l1.03-.16c3.3-.51,6.7-1.03,9.94-1.99,3.77-1.1,7.35-3.12,10.34-5.83,3.94-3.52,6.25-8.15,6.35-12.68.39-8.05-7.5-12.95-14.36-14.7-5.71-1.46-11.89-1.45-17.87-1.44-3.69,0-7.5.01-11.17-.33-2.59-.21-5.2-.5-7.66-.78-2.57-.24-5.19-.64-7.73-1.02-5.44-.82-11.06-1.67-16.63-1.12h-.07c-4.27.54-9.15,1.31-12.95,3.69-3.97,2.49-7.01,6.42-8.12,10.5-1.38,5.03-.53,10.43.28,15.65.14.91.28,1.81.41,2.71,1,6.41-.42,10.75-2.88,17.14-.18.51-.37,1.01-.55,1.51-.78,2.14-1.52,4.16-2.18,6.29-.92,2.93-2.07,6.58-1.86,10.24.38,5.24,4.15,11.74,19.95,12.89,4.89.31,10.53.5,15.7-1.26,2.9-.99,5.02-2.79,6-5.09.91-2.15.77-4.6-.4-7.07-.63-1.38-1.47-2.72-2.28-4.01-.77-1.23-1.57-2.51-2.18-3.81-1.86-3.74-1.9-6.86-.11-9.01,2.38-2.87,7.9-3.78,13.42-2.23,5.76,1.71,10.83,5.99,13.24,11.16.83,1.77,1.56,3.5,2.26,5.18,3.33,7.96,6.21,14.84,17.25,16.86,3.49.68,6.84,1.02,10.03,1.02,2.97,0,5.8-.29,8.47-.88,3.54-.8,6.19-2.66,7.66-5.35,1.55-2.84,1.66-6.45.31-10.16-4.68-11.9-17.62-17.08-29.36-21ZM417.41,77.65c-4.21.45-9.75.95-15.23.73-2.45-.05-5.05-.22-7.41-1.1-2.12-.76-3.65-2.15-4.19-3.83-.48-1.49-.16-3.1.92-4.63,2.1-2.68,5.57-4.73,9.27-5.46h.04c3.17-.54,6.68-.53,10.16.04,3.05.55,6.08,1.6,9,2.61,1.02.35,2.06.71,3.09,1.04.7.23,1.41.46,2.11.69,1.42.46,2.9.94,4.29,1.45,1.18.46,2.39,1.01,3.25,1.92.65.7.89,1.45.7,2.22-.35,1.45-2.07,2.67-3.53,3.2-2.49,1.01-5.25,1-7.91.98-1.51,0-3.07-.02-4.57.16Z"/>
        <path class="cls-1" d="M236.21,60.74c-.23-3.2-2.74-5.9-7.46-8.03-9.58-4.17-19.71-5.87-28.54-4.78h-.07c-2.31.35-4.61.95-6.84,1.52l-.15.04c-3.01.77-6.47,1.85-9.43,3.94-2.37,1.71-3.45,3.59-3.21,5.58.59,4.93,9.16,8.68,10.88,9.38,7.46,2.96,14.53,4.45,21.08,4.45,1.47,0,2.92-.08,4.34-.23,3.64-.19,9.01-.75,13.64-3.48,4.36-2.43,5.83-5.92,5.74-8.39Z"/>
      </g>
      <g>
        <polygon class="cls-1" points="109.96 170.33 76.11 131.8 7.99 131.8 7.99 197.52 47.82 197.52 46.94 151.77 49.98 151.77 94.19 197.52 125.89 197.52 170.09 151.77 172.79 151.77 171.91 197.52 211.74 197.52 211.74 131.8 143.97 131.8 109.96 170.33"/>
        <path class="cls-1" d="M370.95,135.26c-9.36-3.72-19.81-4.38-69.88-4.38s-60.52.66-69.88,4.38c-5.26,2.09-8.47,5.05-10.43,9.59-1.84,4.28-2.63,10.08-2.63,19.39,0,17,1.89,25.33,13.06,29.81,9.36,3.72,19.86,4.38,70.23,4.38s60.28-.7,69.53-4.38c11.11-4.42,13.06-13.02,13.06-29.44s-1.95-24.93-13.06-29.35ZM339.85,175.97c-4.46,1.72-10.6,2.04-38.43,2.04-29.32,0-34.8-.28-39.11-2.03-3.55-1.47-3.87-3.7-3.87-9.72,0-7.02.58-10.21,2.15-11.77h.01c2.83-2.89,6.61-3.18,40.47-3.18,31.5,0,35.97.27,39.47,2.4,2.09,1.34,3.15,3.68,3.15,12.64,0,7.24-1.23,8.55-3.84,9.61Z"/>
        <polygon class="cls-1" points="526.27 131.8 492.26 170.33 458.42 131.8 390.29 131.8 390.29 197.52 430.13 197.52 429.25 151.77 432.29 151.77 476.5 197.52 508.2 197.52 552.4 151.77 555.09 151.77 554.21 197.52 594.04 197.52 594.04 131.8 526.27 131.8"/>
      </g>
    </g>
  </g>
</svg>