<?xml version="1.0" encoding="UTF-8"?>
<svg id="Layer_2" data-name="Layer 2" xmlns="http://www.w3.org/2000/svg" viewBox="0 0 243.53 91.46">
  <defs>
    <style>
      .cls-1 {
        fill: #1c1c1c;
      }
    </style>
  </defs>
  <g id="Capa_1" data-name="Capa 1">
    <g>
      <path class="cls-1" d="M206.29.38l.3,6.44,5.87-.28.36,7.71,5.76-.27-.42-8.97,5.76-.27-.12-2.53,5.76-.27-.07-1.38,11.52-.55.74,15.53-5.76.27.18,3.8-5.76.27.25,5.18-5.76.27.48,10.24-5.76.27.61,12.88-5.76.27.25,5.18-17.39.82-.19-3.91-5.76.27.19,3.91-17.39.82-.06-1.27-5.59.26-.18-.16-.48-10.18-5.76.27.49,10.35-5.76.27.06,1.27-11.52.55-.12-2.47-.18-.16-5.59.26-.18-3.8-5.87.28.06,1.27-11.52.55-.12-2.53-5.76.27-.06-1.27-5.76.27.12,2.53-17.39.82-.67-14.15,5.76-.27-.19-3.91-5.76.27.07,1.38-11.52.55-.07-1.38-5.76.27-.12-2.53-5.76.27-.12-2.53-11.63.55.06,1.27,5.76-.27.12,2.53,5.87-.28.91,19.33-5.87.28.18,3.8-5.76.27.07,1.38-5.76.27.06,1.27-28.91,1.37-.06-1.27-5.76.27-.07-1.38-5.76.27-.06-1.27-5.76.27-.12-2.53-5.76.27-.67-14.15,5.76-.27-.12-2.53,17.28-.82.06,1.27,5.76-.27-.13-2.65-5.76.27-.12-2.53-11.52.55-.12-2.53-5.76.27-.67-14.15,5.76-.27-.13-2.65,5.76-.27-.06-1.27,5.76-.27-.12-2.53,11.63-.55-.06-1.27,11.52-.55.06,1.27,5.76-.27.06,1.27,5.76-.27.12,2.53,5.76-.27c.08.44-.11,1.05.23,1.37l5.7-.27.12,2.53,5.76-.27.36,7.71,17.28-.82.06,1.27,5.76-.27-.67-14.15,5.87-.28-.06-1.27,17.28-.82.06,1.27,11.52-.55.06,1.27,5.7-.27.18.16.12,2.47,5.76-.27.48,10.24,5.76-.27-.06-1.27,17.28-.82.06,1.27,17.39-.82.19,3.91,5.76-.27.3,6.44-5.76.27.24,5.06-5.76.27.13,2.65,5.76-.27.18,3.8,11.52-.55-.18-3.8,5.76-.27-.25-5.18,5.76-.27-.12-2.53-5.59.26-.18-.16-.42-8.92-5.76.27-.3-6.44-5.76.27-.54-11.5,5.76-.27-.19-3.91,11.52-.55ZM39.39,19.92l-17.39.82.18,3.8,5.76-.27c.08.44-.11,1.05.23,1.37l5.7-.27.06,1.27,5.76-.27.12,2.53,5.76-.27.12,2.53,5.76-.27-.18-3.8-5.76.27-.3-6.44-5.76.27-.06-1.27ZM131.93,19.34l-11.52.55.13,2.65-5.76.27.18,3.8,5.76-.27-.12-2.53,5.76-.27-.12-2.53,5.76-.27-.07-1.38ZM144.84,45.83l-.91-19.15-.18-.16-5.59.26.19,3.91-5.87.28.18,3.74.18.16,5.7-.27.54,11.5,5.76-.27ZM172.96,30.31l-11.52.55.19,3.91,5.76-.27-.06-1.27,5.76-.27-.13-2.65ZM34.78,44.58c-.04-.84-.08-1.69-.12-2.53l-5.87.28.12,2.53c1.96-.09,3.92-.19,5.87-.28.09,1.72.16,3.45.25,5.18l5.76-.27.06,1.27,11.52-.55-.06-1.27,5.76-.27-.19-3.91-17.28.82c-.06-.3.1-1.14-.24-1.24-1.86.05-3.72.16-5.57.25Z"/>
      <path class="cls-1" d="M37.37,63.77l.29,6.21,5.69-.27.24,4.97,5.69-.27-.29-6.21,5.69-.27-.24-4.97,34.16-1.62.09,1.89,5.69-.27-.06-1.24,5.69-.27-.03-.65,45.54-2.16.03.65,5.69-.27.03.59,5.69-.27-.06-1.24,34.16-1.62.24,4.97,5.69-.27.29,6.21,5.69-.27-.24-4.97,5.69-.27-.29-6.21,34.16-1.62,1.23,26.08-17.08.81-.62-13.01-5.69.27.26,5.56-5.69.27.26,5.56-5.69.27.09,1.89-17.08.81-.15-3.13-5.69.27-.26-5.56-5.69.27.41,8.69-22.77,1.08-.06-1.24-5.69.27.06,1.24-56.93,2.7-.06-1.24-5.69.27.06,1.24-22.77,1.08-.38-8.04-5.69.27.26,5.56-5.69.27.12,2.48-17.08.81-.09-1.89-5.69.27-.26-5.56-5.69.27-.26-5.56-5.69.27.56,11.77,5.69-.27.06,1.24-22.77,1.08-1.23-26.08,34.16-1.62ZM134.52,67.29l-22.77,1.08.15,3.07-5.69.27.21,4.38,5.69-.27.12,2.48,17.08-.81-.03-.65,5.69-.27-.09-1.83,5.69-.27-.24-4.97-5.69.27-.12-2.48Z"/>
    </g>
  </g>
</svg>