<?xml version="1.0" encoding="UTF-8"?>
<svg id="Layer_2" data-name="Layer 2" xmlns="http://www.w3.org/2000/svg" viewBox="0 0 618.74 216.04">
  <defs>
    <style>
      .cls-1 {
        fill: #fff;
      }
    </style>
  </defs>
  <g id="Layer_1-2" data-name="Layer 1">
    <path class="cls-1" d="M352.78,136.23c.91-1.23,1.8-2.47,2.73-3.68.99-1.28,1.05-2.49,0-3.76-.48-.59-1.1-1.06-1.67-1.58-1.2-1.09-2.5-2.1-3.59-3.29-2.25-2.45-3.5-5.35-3.35-8.73.29-6.35,5.57-11.53,11.95-11.81,2.66-.12,5.2.38,7.7,1.25,2.38.83,4.79,1.59,7.18,2.39,1.1.37,1.91.09,2.77-.73,2.05-1.97,4.21-3.82,6.34-5.7,6.03-5.31,11.12-11.45,15.9-17.86,1.92-2.57,3.88-5.1,5.82-7.65,5.38-7.05,11.93-12.78,19.57-17.26,2.26-1.32,4.49-2.69,6.74-4.03,3.45-2.06,6.37-4.71,8.77-7.95,1.39-1.89,2.79-3.77,4.26-5.6,2.4-2.98,5.31-5.28,9.09-6.27,3.42-.9,6.8-.83,10.06.68,2.76,1.28,4.65,3.37,5.57,6.29.1.3.18.6.28.9.01.03.06.05.25.2.25-.39.49-.78.75-1.17,1.59-2.41,3.07-4.89,4.79-7.21,2.41-3.26,5.42-5.92,8.91-8.01,2.95-1.76,6.07-2.95,9.57-3.01,6.22-.1,10.92,4.15,11.33,10.34.07.98.02,1.99-.15,2.96-.88,5.01-2.88,9.48-6.64,13.02-1.67,1.58-3.44,3.05-5.19,4.54-.44.37-.72.69-.68,1.34.19,3.34-1.41,5.58-4.41,6.89-1.31.57-2.43,1.36-3.4,2.53.16.2.3.41.49.59,3.3,3.13,4.4,6.94,3.45,11.34-.18.82-.06,1.46.34,2.16,1.16,2.07,1.78,4.36,2.08,6.68.28,2.19,1.38,3.28,3.51,3.58,1.78.25,3.56.59,5.32.99,1.36.31,2.73.66,4.02,1.19,5.86,2.4,8.91,6.93,9.76,13.08.42,3.02.15,6.02-.19,9.03-.29,2.55-.41,5.12-.73,7.66-.35,2.81-.9,5.6-1.23,8.42-.43,3.58-.68,7.18-1.09,10.76-.56,4.92-1.21,9.84-1.81,14.76-.07.54-.17,1.08-.16,1.61.03,1.3.56,2.34,1.72,3.03,1.3.77,2.5,1.05,4.04.32,4.42-2.08,9.02-3.66,13.85-4.5,2.4-.42,4.79-.93,7.2-1.2,4.69-.53,9.02.74,13.16,2.85,4.78,2.44,9.59,4.81,14.38,7.24,3.3,1.67,6.74,2.59,10.45,2.04,1.6-.24,3.19-.58,4.78-.94,3.03-.69,6.03-1.59,9.09-2.12,8.37-1.45,16.27-.26,23.4,4.64,2.4,1.64,4.51,3.6,6.3,5.9,2.18,2.79,2.97,5.94,2.43,9.41-.37,2.37-1.67,4.26-3.43,5.84-1.99,1.78-4.35,2.88-6.91,3.57-3.54.96-7.14,1.01-10.75.65-5.74-.58-11.21-2.3-16.68-3.99-.3-.09-.61-.18-.9-.28-2.39-.86-4.77-1.32-7.39-1.06-4.17.43-8.27-.48-12.32-1.4-2.15-.49-4.28-1.08-6.43-1.59-.65-.15-1.34-.29-1.99-.24-5.98.44-11.78-.43-17.48-2.25-2.1-.67-4.27-1.13-6.43-1.59-1.6-.34-3.21-.24-4.81.24-5.11,1.54-10.01,3.61-14.83,5.86-.67.31-1.21.9-1.8,1.38-.35.28-.67.61-1.01.9-.17.15-.36.27-.54.4-3.51,2.53-7.02,5.07-10.53,7.59-4.2,3.02-8.79,5.13-13.9,6.05-3.78.68-7.38.12-10.76-1.65-4.6-2.41-7.6-7.74-5.62-14.21.75-2.45,2.03-4.6,3.54-6.65,3.04-4.14,6.63-7.72,10.65-10.91,2.08-1.65,3.98-3.52,5.92-5.35.68-.65,1.24-1.43,1.82-2.18,1.6-2.05,2.34-4.36,2.04-6.95-.24-2.1-.53-4.19-.99-6.31-.1.27-.23.53-.29.81-.76,3.39-2.86,5.66-5.97,7.03-2.49,1.1-5.14,1.38-7.82,1.26-5.82-.25-11.44-1.47-16.8-3.79-3.36-1.46-6.3-3.5-8.47-6.53-1.5-2.09-2.45-4.4-3-6.9-.14-.61-.25-1.23-.39-1.95-.33.07-.63.09-.9.19-4.55,1.65-8.87,1.1-12.98-1.39-1.89-1.15-3.78-2.29-5.65-3.47-5.22-3.27-10.97-4.79-17.06-5.07-4.55-.21-9.11-.28-13.67-.39-.54-.01-1.09.04-1.61.15-1.9.39-3.79.8-5.68,1.24-.42.1-.87.27-1.18.55-2.82,2.54-5.61,5.09-8.4,7.67-1.93,1.79-3.62,3.77-4.85,6.12-1.53,2.93-2.05,6.02-1.75,9.3.21,2.24.37,4.49.43,6.75.08,3.23-.62,6.37-1.41,9.47-1.52,5.99-2.51,12.08-3.48,18.18-.75,4.77-1.75,9.48-3.54,14-1.37,3.47-3.13,6.73-5.93,9.27-4.54,4.11-9.82,5.87-15.87,4.36-4.87-1.22-7.9-4.48-9.36-9.24-.25-.81-.52-1.63-.87-2.41-.98-2.22-1.44-4.55-1.53-6.96-.02-.47-.04-.95-.08-1.66-.46.55-.78.92-1.08,1.29-1.61,1.98-3.45,3.68-5.7,4.92-5.08,2.8-10.77,2.16-15.06-1.74-3.12-2.83-4.92-6.41-5.74-10.5-.88-4.39-.11-8.6,1.48-12.71,1.58-4.08,3.18-8.14,4.63-12.27,1.01-2.89,1.77-5.87,2.64-8.8,1.86-6.23,4.32-12.23,7-18.15,1.39-3.08,2.57-6.25,3.84-9.38.08-.2.11-.41,0-.67-.18.38-.36.75-.53,1.13-.84,1.85-1.7,3.68-2.52,5.54-1.38,3.13-2.81,6.25-4.1,9.42-1.6,3.94-3.49,7.72-5.81,11.29-1.92,2.96-3.61,6.03-5.07,9.24-1.85,4.04-4.09,7.84-7.2,11.06-4.34,4.5-9.41,7.71-15.68,8.72-3.5.57-6.98.25-10.26-1.06-7.95-3.17-15.48-7.12-22.36-12.26-1.01-.76-1.99-1.55-3-2.32-3.31-2.52-5.64-5.81-7.34-9.56-1.85-4.07-3.49-8.21-4.82-12.48-.4-1.29-1.09-2.34-2.03-3.29-1.78-1.8-3.52-3.62-5.22-5.5-.77-.85-1.39-1.84-2.27-2.68.23.52.4,1.08.68,1.56,1.31,2.21,2.63,4.41,4,6.58,1.09,1.71,2.28,3.36,3.41,5.05,3.55,5.33,5.82,11.17,6.84,17.5.26,1.64.65,3.27,1.03,4.89.69,2.97,2.12,5.56,4.23,7.74,1.69,1.75,3.48,3.41,5.26,5.07,2.51,2.34,4.99,4.71,7.05,7.48,3.45,4.65,5.18,9.86,5.14,15.65-.01,1.73-.33,3.41-1.03,5-2.08,4.68-7.22,6.35-11.66,3.79-1.71-.98-3.06-2.37-4.3-3.88-2.21-2.7-3.93-5.72-5.67-8.73-.95-1.64-1.88-3.29-2.78-4.95-2.53-4.69-5.39-9.18-8.54-13.48-3.94-5.37-6.79-11.26-8.53-17.69-.41-1.52-.86-3.04-1.35-4.53-3.42-10.37-7.26-20.58-12.18-30.34-3.17-6.29-7.25-11.94-12.53-16.68-3.79-3.4-6.97-7.29-9.41-11.79-1.06-1.95-2.85-3.23-4.85-4.18-4.46-2.13-9.15-2.62-14-1.9-.86.13-1.29.66-1.44,1.4-.4,1.89-.86,3.79-1.07,5.7-.54,5.08-1.21,10.11-2.92,14.96-.58,1.63-.63,3.35-.64,5.07-.01,2.3.03,4.61-.25,6.88-.58,4.73-2.45,8.93-5.7,12.46-.12.13-.21.29-.33.46.12.21.21.41.33.59,5.43,8.16,7.56,17.16,6.8,26.88-.3,3.8-.94,7.5-2.67,10.97-1.5,3.01-3.69,5.44-6.18,7.62-3.04,2.66-6.43,4.81-10.07,6.55-4.96,2.37-9.97,4.65-14.94,7.03-5.86,2.81-11.98,3.53-18.34,2.38-3.24-.58-6.45-.52-9.7-.03-5.18.78-10.33.78-15.44-.63-1.95-.54-3.95-.95-5.95-1.25-2.8-.43-5.63-.42-8.21.92-2.87,1.48-5.87,2.26-9.07,2.42-1.75.09-3.2.82-4.51,1.95-.99.86-1.97,1.73-3.04,2.48-1.69,1.2-3.56,1.92-5.68,1.87-2.59-.07-4.47-1.45-5.17-3.96-.66-2.32-.41-4.66.14-6.96.37-1.53.86-3.03,1.34-4.54.48-1.52.75-3.06.68-4.66-.02-.36,0-.74-.12-1.07-.95-2.77-1.2-5.64-1.19-8.54,0-1.24-.4-2.08-1.35-2.89-4.52-3.85-7.85-8.55-9.9-14.13-1.01-2.75-1.33-5.6-1.33-8.51,0-1.15-.02-2.3-.04-3.79-.63.57-.99.88-1.35,1.21-2.13,1.98-4.49,3.62-7.17,4.78-2.51,1.09-5.1,1.61-7.78.88-4.32-1.19-6.68-4.26-7.67-8.46-.87-3.68.03-6.99,2.54-9.81,3.33-3.73,6.69-7.44,10.09-11.11,2.04-2.19,3.56-4.64,4.39-7.52.31-1.08.62-2.17,1-3.23.26-.72.21-1.39,0-2.1-.73-2.53-1.87-4.87-3.04-7.21-1.27-2.54-2.57-5.08-3.57-7.72-1.77-4.68-2.08-9.6-1.56-14.54.5-4.77.08-9.36-1.95-13.75-.87-1.88-1.68-3.79-2.64-5.63-1.78-3.43-3.21-6.97-3.54-10.86-.13-1.52-.15-3.06-.15-4.59,0-1.52-.3-2.95-.96-4.32-.84-1.74-1.68-3.5-2.52-5.24-.89-1.84-1.6-3.72-1.73-5.79-.33-5.49,3.4-9.81,8.89-10.03,4.88-.19,9.56.71,13.6,3.64,2.33,1.69,4.52,3.59,6.77,5.39.92.73,1.79,1.52,2.75,2.2,1.95,1.4,4.14,2.16,6.55,2.32,3.02.2,6.04.36,9.05.63,3.88.35,7.65,1.26,11.37,2.38,2.32.7,4.64.99,7.07.92,3.34-.1,6.68.06,10.02-.02,2.75-.07,5.49-.37,8.24-.49,2.26-.1,4.51.08,6.7.72,3.36.97,6.06,2.94,8.42,5.44,3.02,3.21,4.98,6.97,5.69,11.31.31,1.88,1.15,3.38,2.49,4.67,1.14,1.1,2.26,2.21,3.37,3.33,5.48,5.52,8.12,12.27,8.52,19.93.18,3.41-.52,6.73-1.69,9.94-.4,1.1-.83,2.19-1.3,3.41,1.38.65,2.77,1.25,4.11,1.95,1.35.71,2.66,1.51,4.08,2.33.17-.54.37-1.04.48-1.55,1.3-5.78,3.19-11.36,5.81-16.69,1.41-2.87,2.02-5.97,2.34-9.12.13-1.26.19-2.52.25-3.78.12-2.35-.07-4.64-.78-6.93-1.19-3.87-1.03-7.85-.44-11.8.55-3.61.33-7.19.08-10.79-.13-1.83-.66-3.5-1.3-5.2-.97-2.57-1.82-5.19-2.62-7.81-.68-2.22-1.58-4.31-2.78-6.29-1.07-1.77-2.09-3.58-3.04-5.42-1.04-2.03-1.59-4.22-1.74-6.49-.52-7.78,6.95-13.24,14.39-10.53,3.22,1.18,5.61,3.37,7.47,6.2,1.35,2.06,2.21,4.33,2.98,6.65.27.81.57,1.6.86,2.4,1.6.25,3.12.45,4.62.74,3.21.62,6.22,1.83,9.14,3.28,6.68,3.32,12.73,7.53,18.14,12.66,2.66,2.52,5.54,4.76,8.51,6.9,3.12,2.23,6.49,3.86,10.17,4.95,2.76.82,5.51,1.72,8.21,2.73,3.12,1.17,5.9,2.94,8.17,5.41,3.81,4.16,5.33,9.09,4.96,14.68-.28,4.17-1.31,8.11-3.65,11.61-2.63,3.92-5.75,7.41-9.61,10.18-.14.1-.27.23-.49.41,4.93,5.29,10.22,10.26,13.05,17.24.14-.21.24-.3.25-.39.32-3.86.7-7.72.92-11.59.18-3.1.16-6.22.25-9.33.13-4.24.5-8.46,1.5-12.6,1.16-4.83,3.09-9.32,5.88-13.43,1.04-1.53,2.08-3.06,3.13-4.58,1.54-2.21,2.32-4.65,2.41-7.34.1-2.85.5-5.69,1.45-8.37,1.43-4,1.42-8.03.88-12.14-.36-2.68-.54-5.38-.14-8.09.66-4.53,3.62-7.85,7.89-8.73,7.23-1.49,14.34,3.04,15.91,10.25.41,1.88.64,3.84.61,5.76-.07,4.27.42,8.44,1.5,12.58.8,3.06,1.19,6.19.71,9.38-.38,2.53-1.22,4.89-2.39,7.14-2.4,4.62-5.39,8.86-8.72,12.85-1.65,1.98-3.3,3.94-4.87,5.98-1.83,2.38-3.29,4.97-3.91,7.95-.24,1.14-.44,2.32-.43,3.48.02,5.82-.06,11.64-.54,17.44-.51,6.06,1.14,11.72,3.36,17.23,1.02,2.54,2.36,4.97,3.73,7.34,1.68,2.92,3.94,5.38,6.67,7.39,2.51,1.85,4.88,3.88,6.97,6.2,1.89,2.11,4.26,2.91,7,2.96,2.7.05,5.32-.3,7.82-1.32,5.13-2.1,8.26-5.74,8.86-11.42.37-3.45.9-6.88,1.48-10.3.87-5.08,2.44-9.98,4.29-14.78.96-2.48,1.41-5,1.53-7.64.17-3.87.57-7.73.79-11.6.13-2.38.18-4.78.12-7.16-.1-3.67-1.07-7.21-1.86-10.78-.75-3.39-1.55-6.77-2.14-10.18-.4-2.35-.57-4.75-.68-7.13-.06-1.38.04-2.82.37-4.15,1.19-4.71,5.19-7.49,10.07-7.31,4.47.17,7.49,2.55,9.77,6.11,1.33,2.09,2.05,4.44,2.23,6.89.41,5.49,1.44,10.9,2.06,16.36.4,3.49.5,7.02.61,10.53.11,3.32.91,6.41,2.68,9.23.81,1.3,1.65,2.59,2.38,3.94,1.05,1.93,2.03,3.9,3.14,6.05,0-.47.02-.79,0-1.11-.41-5.03-.83-10.06-1.23-15.1-.13-1.71-.23-3.42-.3-5.13-.29-7.17-.59-14.34.2-21.49.63-5.71,2.21-11.13,5.1-16.13,1.11-1.91,2.28-3.79,3.36-5.71.86-1.53,1.63-3.1,2.48-4.74-.41-.18-.67-.34-.95-.41-7.02-1.8-13.32-4.98-18.92-9.58-4.24-3.49-9.22-5.4-14.55-6.52-2.02-.42-3.8-.05-5.5,1.16-2.31,1.65-4.66,3.26-7.08,4.74-3.25,1.99-6.77,3.38-10.54,4.09-6.88,1.3-12.68-1.56-15.8-7.84-1.61-3.24-2.29-6.63-1.48-10.23,1.13-5.06,5.11-8.72,10.49-9.67,3.2-.57,6.39-.35,9.57.1,1.88.27,3.74.64,5.62.86.73.09,1.52,0,2.25-.18,2.94-.69,5.83-1.61,8.79-2.16,7.22-1.33,14.1-.08,20.65,3.13,1.42.69,2.8,1.47,4.14,2.3,3.18,1.98,6.37,3.95,9.47,6.03,2.7,1.81,5.71,2.6,8.97,3.17.15-.51.28-.98.42-1.44.71-2.34,1.59-4.6,3.16-6.53,4.49-5.49,12.51-4.84,16.05,1.3,1.01,1.75,1.51,3.66,1.62,5.67.04.8.11,1.61.17,2.49.64.17,1.21.28,1.75.47,7.2,2.53,14.58,4.38,21.98,6.22,4.58,1.14,8.82,3.17,12.61,6.06,2.54,1.94,4.7,4.22,6.14,7.11,1.5,3.01,2.07,6.16,1.1,9.44-1.33,4.48-4.52,7.04-8.94,8.17-3.55.9-7.08.5-10.58-.4-4.01-1.03-7.72-2.77-11.26-4.87-2.05-1.22-4.08-2.5-6.1-3.77-3.9-2.44-8.11-4.13-12.57-5.2-.39-.09-.79-.15-1.24-.24-.2.33-.4.61-.55.93-.66,1.43-1.31,2.87-1.95,4.31-1.96,4.37-2.21,8.86-.97,13.48.58,2.17,1.1,4.37,1.52,6.58.64,3.3.3,6.56-.7,9.75-.58,1.85-1.27,3.66-1.91,5.49-1.55,4.41-2.01,8.97-1.58,13.6.45,4.8,1.01,9.59,1.55,14.38.67,5.95-.06,11.7-2.44,17.21-1.2,2.77-2.46,5.52-3.69,8.27-2.43,5.42-3.66,11.12-3.93,17.03-.14,3.11-.09,6.22-.13,9.33-.06,4.82-.13,9.65-.21,14.47-.01.72-.11,1.43-.2,2.46.29-.45.46-.66.57-.9,1.96-4.41,3.95-8.8,5.84-13.24.36-.84.43-1.83.5-2.76.54-7.21,3.07-13.67,7.21-19.55.81-1.14,1.64-2.26,2.49-3.37.26-.35.62-.62.94-.93-.15.42-.38.83-.41,1.26-.02.35.12.81.36,1.04.13.12.74-.02.92-.23.59-.66,1.14-1.36,1.59-2.12.3-.5.66-1.07.36-1.79-1.24.25-1.97,1.19-2.87,1.89ZM48.19,146.33c-.04.23-.08.45-.11.66-.32,3.14-.62,6.28-.98,9.41-.09.77.05,1.39.5,2.01,2.21,3.06,3.83,6.42,4.97,10.01.18.56.4,1.1.58,1.66.71,2.25,2.09,3.97,4.15,5.13.51.29,1,.62,1.51.91,2.94,1.66,5.93,3.22,8.96,4.73,1.67.83,3.23,1.22,5.02,1.01.49-.06.99-.08,1.48-.12,3.97-.29,7.93-.33,11.88.33,2.9.48,5.8.88,8.75.52,3-.37,5.95-.16,8.83.79.85.28,1.68.27,2.51-.05.59-.23,1.2-.4,1.76-.69,4.39-2.25,8.96-4.02,13.66-5.49,2.34-.73,3.11-2.74,1.98-4.88-.48-.92-1.04-1.8-1.51-2.72-.98-1.88-1.98-3.75-2.87-5.67-1.68-3.63-2.44-7.53-3.22-11.42-.37-1.86-.88-3.68-1.82-5.35-.58-1.02-1.31-1.74-2.48-2.12-3.73-1.21-6.88-3.34-9.51-6.24-.88-.97-1.78-1.92-2.66-2.88-.48-.53-1.06-.8-1.79-.79-2.59.03-5.11-.41-7.63-.97-.96-.21-1.97-.32-2.95-.26-2.76.17-5.45.79-8.03,1.78-3.29,1.26-6.49,2.69-9.14,5.13-.99.91-2.15,1.64-3.28,2.38-4.21,2.75-8.83,3.72-13.82,3.21-1.51-.15-3.06-.02-4.75-.02ZM36.67,103.75c.57-.12.92-.19,1.27-.26,1.99-.42,4.01-.7,6.04-.52,2.56.23,5.12.49,7.66.88,3.67.57,7.09.07,10.26-1.93,1.11-.7,2.23-1.36,3.37-2.01,1.52-.88,3.04-1.78,4.6-2.58,3.8-1.93,7.82-2.69,12.07-2.12,1.52.21,3.03.45,4.55.62,1.43.17,2.88.21,4.31.43,1.1.17,2.04-.05,2.95-.63,1.07-.68,1.8-1.65,2.26-2.79.14-.36.1-.9-.07-1.26-.51-1.05-1.06-2.09-1.72-3.06-2.5-3.69-4.32-7.69-5.6-11.96-.54-1.81-1.17-3.61-1.94-5.33-1.64-3.67-4.59-5.72-8.51-6.31-1.51-.23-3.06-.23-4.59-.21-3.4.04-6.77-.12-10.09-.87-3.2-.73-6.42-.81-9.68-.73-5.41.13-10.83.09-16.25.21-1.61.04-3.22.33-4.81.64-.73.14-1.44.54-2.06.97-1.27.88-1.41,1.55-.52,2.83,1.43,2.07,2.24,4.42,3.07,6.74,1,2.82.96,5.65-.27,8.44-.69,1.56-1.23,3.19-1.87,4.78-.55,1.37-.33,2.65.38,3.88.29.51.59,1.03.98,1.46,1.87,2.08,2.82,4.58,3.37,7.27.22,1.09.53,2.17.83,3.4ZM486.45,143.5c-.27-4.95.17-9.8.39-14.66.14-2.92.06-5.86.05-8.79,0-1.02-.32-1.94-1-2.73-.99-1.17-1.88-2.44-2.96-3.52-2.58-2.58-5.24-5.09-7.9-7.59-4.17-3.93-8.34-7.85-12.54-11.74-2.63-2.43-5.01-5.06-6.86-8.14-2.43-4.06-3.55-8.43-3.19-13.18.28-3.76,1.49-7.21,3.19-10.53.22-.43.43-.85.65-1.3-.17-.04-.27-.1-.33-.08-2.78,1.32-5.18,3.1-6.89,5.7-2.47,3.74-3.99,7.87-4.85,12.24-.37,1.89-.2,3.78.68,5.54.54,1.09,1.05,2.21,1.74,3.2,1.68,2.4,3.43,4.75,5.22,7.07,1.76,2.28,3.65,4.47,5.42,6.75,3.02,3.9,5.11,8.27,6.25,13.07.59,2.5,1.14,5.01,1.71,7.51.29,1.27.94,2.33,1.97,3.14,4.57,3.6,8.66,7.78,13.53,11,2.45,1.62,4.32,3.82,5.43,6.59.06.16.19.29.28.43ZM156.35,75.96c3.16.44,6.1.81,9.04,1.25,2.32.35,4.61.85,6.94,1.14,3.37.43,6.77.47,10.11-.23,2.19-.47,2.68-.2,1.94-3.16-.92-3.69-3.15-6.54-6.02-8.93-1.7-1.41-3.45-2.76-5.21-4.1-4.02-3.08-7.36-6.76-9.94-11.13-.78-1.32-1.56-2.64-2.43-3.9-.66-.96-1.43-1.86-2.21-2.72-.76-.84-1.75-1.27-2.89-1.29-1.66-.03-3.32,0-4.97,0,2.33,11.01,3.59,22.24,5.64,33.1ZM440.53,117.13l.21-.3c-.54-.45-1.04-.95-1.62-1.34-1.39-.92-2.82-1.77-4.23-2.67-2.68-1.7-5.19-3.59-7.36-5.92-4.41-4.74-6.71-10.29-6.43-16.82.01-.34,0-.68,0-1.02-.41.31-.62.68-.81,1.06-1.3,2.6-2.93,4.98-5.07,6.96-1.82,1.68-3.74,3.25-5.65,4.83-2.32,1.93-4.69,3.81-7.01,5.73-.53.44-.97.99-1.46,1.49,3.25.66,6.36,1.2,9.43,1.92,4.44,1.04,8.89,1.97,13.43,2.41,5.09.5,10.05,1.59,14.91,3.17.55.18,1.11.32,1.66.48ZM216.25,67.8c-.18-1.84-.5-3.33-1.4-4.72-1.4-2.16-3.1-3.89-5.3-5.27-2.42-1.52-4.93-2.54-7.77-2.9-2.61-.33-5.07-1.21-7.3-2.66-.37-.24-.8-.45-1.23-.51-.72-.11-1.19.52-.95,1.21.09.25.24.48.41.7.77.99,1.46,2.07,2.34,2.95,3.05,3.03,6.31,5.7,10.96,5.69,1.05,0,2.03.3,2.97.81.5.27,1.09.51,1.65.54,1.08.06,1.72.66,2.26,1.49.64.98,1.27,1.95,1.97,2.89.18.24.65.51.85.44.29-.11.46-.53.55-.65ZM450.32,98.06c-.15-.34-.26-.61-.38-.87-.57-1.32-1.14-2.63-1.7-3.95-.82-1.93-1.35-4.05-3.5-5.09-.44-.21-.77-.63-.65-1.22.13-.6-.17-1.02-.59-1.41-.26-.24-.58-.51-.65-.83-.29-1.21-.53-2.44-.71-3.67-.18-1.2-.73-2.17-1.81-2.68-.84-.4-1.76-.75-2.68-.84-1.52-.15-3.05-.07-4.58-.09-.6,0-1.06.2-1.28.79-.19.53-.03.99.38,1.34.66.54,1.34,1.06,2.03,1.57,1.9,1.38,3.48,3,4.14,5.33.26.89.84,1.43,1.72,1.75.58.21,1.11.56,1.64.88.65.4,1.25.88,1.93,1.24,1.82.96,3.17,2.32,4.02,4.21.44.98,1,1.91,1.54,2.85.21.36.41.8,1.11.7ZM481.37,174.77c-1.08-.53-1.67-.55-2.67,0-2.26,1.23-4.36,2.64-6.24,4.45-3.04,2.93-4.42,6.5-4.72,10.6-.06.84.26,1.42.9,1.64.71.24,1.22-.08,1.66-.6.93-1.09,1.86-2.2,2.81-3.28,1.14-1.29,1.95-2.76,1.96-4.49.01-1.46.7-2.47,1.7-3.37.5-.45,1.05-.85,1.54-1.32.84-.82,1.66-1.65,2.44-2.52.28-.31.42-.73.62-1.11ZM597.17,166.96c-.5.05-1.09.04-1.66.16-1.07.23-1.74.89-1.83,1.74-.1.98.4,1.69,1.23,2.07.85.4,1.76.74,2.67.9,3.52.63,6.93,1.61,10.26,2.89.63.24,1.29.43,1.95.55.78.14,1.44-.22,1.71-.8.28-.6.13-1.29-.45-1.83-.23-.21-.49-.4-.76-.56-1.63-.96-3.24-1.95-4.91-2.86-2.53-1.38-5.24-2.16-8.22-2.27ZM102.8,60.18c-.15-.8-.56-1.62-1.32-2.01-1.52-.79-2.02-2.32-2.62-3.63-.99-2.15-2.41-3.64-4.61-4.43-.55-.2-1.14-.34-1.62-.65-1.23-.8-2.55-1.07-3.99-1-1.15.05-2.34.27-3.39-.52-.18-.13-.67-.07-.85.09-.17.15-.21.57-.15.84.32,1.38,1.09,2.31,2.58,2.61.78.16,1.59.42,2.24.84.91.6,1.9,1.14,2.49,2.19.27.49.96.8,1.53,1.04.74.31,1.56.44,2.32.71.67.24,1.32.53,1.97.84,1.13.55,1.89,1.46,2.55,2.52.37.6.87,1.17,1.44,1.57.7.48,1.47-.06,1.44-1.01ZM491.22,91.2c.02.05.04.1.06.15,1.11.48,2.27.88,3.32,1.47,1.41.79,2.73,1.73,4.1,2.59.42.26.86.53,1.33.66,1.71.48,2.91,1.58,3.87,3,.56.82,1.14,1.63,1.63,2.49.9,1.6,2.04,3.08,2.33,4.98.1.63.48,1.22,1.03,1.52,1.16-1.05,1.25-2.3,1-3.64-.02-.13.01-.27,0-.4-.11-1.69-.55-3.27-1.53-4.69-.59-.85-1.12-1.74-1.56-2.68-1.14-2.44-3.43-3.16-5.7-3.94-.16-.05-.37-.03-.53.02-.55.19-.93-.07-1.34-.4-.88-.7-1.9-.96-3.03-.92-.94.03-1.88-.07-2.83-.11-.72-.03-1.43-.06-2.15-.1ZM341.2,119c.36-.4.61-.59.73-.84.7-1.46,1.46-2.9,2.03-4.41.46-1.22.76-2.59.17-3.82-.46-.95-.6-1.87-.56-2.86.12-3.07-.15-6.11-.56-9.15-.26-1.92-.61-3.82-.18-5.77.11-.5.21-1.13-.34-1.48-.66-.42-1.1.12-1.53.49-.87.74-1.77.75-2.76.27-.69-.33-1.41-.59-2.11-.88-.86-.37-1.72-.75-2.59-1.11-.25-.1-.52-.14-1.02-.27.21.48.3.73.42.95.67,1.2,1.85,1.85,2.95,2.5,1.89,1.13,3.32,2.6,4.21,4.6.13.29.31.55.49.81,1.01,1.44,1.4,3.14,1.67,4.8.29,1.81.21,3.68.25,5.52,0,.38-.14.78-.24,1.16-.18.68-.49,1.35-.56,2.04-.22,2.15-.35,4.3-.51,6.45-.02.24.02.49.04,1ZM319.24,115.86c.09.05.17.1.26.15.07-.12.15-.23.2-.35.92-2.27,1.31-4.57.42-6.96-.54-1.43-1.08-2.86-1.57-4.31-.55-1.63-1.45-2.98-2.84-4.02-.42-.32-.77-.75-1.12-1.15-.51-.57-.95-1.21-1.51-1.73-.9-.83-1.48-1.83-1.69-3.01-.22-1.19-.34-2.4-.5-3.61-.11-.79-.14-1.6-.93-2.2-.26,2.84,0,5.67.19,8.46-.09.12-.13.2-.19.26-2.19,1.98-1.74,4.44.99,5.42.21.08.43.14.64.22,1,.4,2.1.65,2.98,1.24,2.06,1.37,3.66,3.2,4.63,5.51.48,1.15.67,2.33.45,3.57-.15.84-.28,1.67-.41,2.51ZM537.77,161.26c.99,0,2.35.03,3.7,0,1.48-.05,2.27-.59,2.36-1.54.09-.89-.53-1.6-1.85-1.99-.71-.21-1.28-.56-1.87-.99-.59-.43-1.35-.8-2.07-.87-2.25-.21-4.5.05-6.7.59-1.02.25-1.82.84-1.91,2-.09,1.13.58,1.85,1.49,2.37,1.1.63,2.3.73,3.53.67.99-.05,1.98-.14,3.32-.24ZM111.13,105.36c-1.68.18-3.57.96-4.58,2.03-.43.46-.66.97-.38,1.6.26.56.74.73,1.33.74,1.12.02,2.24.05,3.36.13.39.03.81.15,1.14.36,1.13.74,2.38,1.06,3.71,1.15,1.6.1,3.1.56,4.51,1.31.24.13.48.25.74.33.71.22,1.33,0,1.66-.53.36-.58.26-1.32-.41-1.79-1.32-.92-2.7-1.76-4.06-2.63-.07-.05-.17-.06-.25-.1-1.28-.56-2.55-1.15-3.85-1.66-.95-.37-1.95-.64-2.92-.95ZM463.56,39.06c-.13-.26-.26-.89-.64-1.27-.49-.49-1.13-.98-1.78-1.14-4.71-1.15-8.85-.18-12.16,3.53-.24.26-.44.58-.57.91-.44,1.09.21,2.13,1.38,2.25.87.09,1.59-.28,2.21-.84.53-.48,1.01-1.03,1.54-1.52,1.27-1.17,2.72-1.54,4.37-.93.72.27,1.41.6,2.14.83.55.17,1.14.33,1.71.32,1.03-.02,1.77-.83,1.81-2.15ZM11.51,31.72c-1.49,0-2.91.75-3.59,1.76-.42.62-.42,1.3-.01,1.74.43.46,1.05.5,1.72.09.11-.07.23-.15.32-.25.71-.76,1.54-.78,2.48-.51,2.91.83,5.77,1.76,8.33,3.44,1.11.73,2.33,1.16,3.67,1.23,1.03.05,1.91.48,2.66,1.18.33.31.64.64.98.93.31.26.63.51.98.72.41.24.89.38,1.22-.06.35-.46.03-.85-.33-1.15-.28-.23-.59-.42-.88-.62-2.11-1.46-4.21-2.93-6.32-4.38-.55-.38-1.09-.85-1.71-1.07-2.71-.98-5.44-1.9-8.17-2.8-.51-.17-1.06-.2-1.35-.25ZM25.14,120.98c-.05.92.54,1.89,1.44,2.14.93.26,1.82-.25,2.35-1.36.13-.28.25-.58.32-.89.19-.88.39-1.76.51-2.65.26-1.91.86-3.67,1.97-5.26.43-.62.77-1.33,1.08-2.02.33-.74.17-1.34-.32-1.7-.5-.36-1.12-.29-1.73.21-.31.26-.64.49-.93.78-1.38,1.37-2.81,2.77-3.39,4.64-.6,1.92-.86,3.94-1.31,6.13ZM245.17,184.34c-.34,1.22-.08,2.18.67,3,.49.53,1.04,1,1.52,1.54.71.81,1.51,1.58,2.03,2.5,1.54,2.69,2.96,5.45,4.43,8.19.21.4.39.82.66,1.17.39.49.91.75,1.55.46.63-.29.81-.84.69-1.46-.09-.48-.25-.96-.48-1.39-1.05-1.99-2.25-3.91-3.18-5.95-1.26-2.77-3.16-5-5.38-7.02-.7-.63-1.48-.97-2.52-1.03ZM67.31,183.35c-.05-.74-.48-1.39-1.2-1.73-.72-.34-1.51-.63-2.29-.73-.99-.13-1.75-.56-2.49-1.2-.84-.73-1.75-1.45-2.75-1.9-1.06-.48-2.21-.72-3.08-1.58-.38-.38-.9-.4-1.38-.12-.52.31-.7.81-.63,1.39.09.77.56,1.29,1.17,1.73.87.63,1.71,1.31,2.59,1.92.7.49,1.38,1.05,2.17,1.35,1.28.48,2.44,1.11,3.57,1.87.79.53,1.66.92,2.65.85,1.03-.08,1.7-.79,1.67-1.85ZM412.68,70.46c1.02,0,1.85-.34,2.6-.95.84-.68,1.63-1.46,2.55-1.98,3.62-2.05,6.6-4.82,9.25-7.98.2-.24.35-.54.59-.91-.33-.03-.48-.09-.58-.04-1.68.85-3.43,1.6-5.02,2.59-1.94,1.21-3.77,2.61-5.62,3.97-1.01.74-2.01,1.52-2.94,2.36-.8.73-1.09,1.7-.83,2.94ZM259,12.56c.82-.44,1.16-1.14,1.6-1.74,1.08-1.49,2.42-2.7,4.22-3.17,1.38-.36,2.59-.96,3.76-1.75,1.66-1.11,3.44-1.93,5.52-1.88.43.01.85-.1,1.28-.15-.34-.37-.69-.55-1.05-.6-1.2-.18-2.44-.17-3.59-.49-1.21-.34-2.24-.15-3.19.54-1.26.91-2.61,1.53-4.13,1.91-1.3.33-2.37,1.1-3.02,2.32-.49.91-.93,1.85-1.35,2.79-.29.65-.53,1.34-.05,2.23ZM239.41,25.66c1.72.07,2.65-1.02,3.24-2.31.48-1.04.69-2.23.9-3.38.13-.67-.36-1.26-1.07-1.31-.61-.05-1.32-.03-1.83.25-.81.44-1.62,1.02-2.19,1.73-1.28,1.58-1.77,3.52-2.12,5.49-.04.22-.03.45,0,.67.1.74.55,1.24,1.17,1.3.68.07,1.11-.31,1.36-.9.19-.46.32-.93.54-1.55ZM115.85,84.2c-.08-.38-.12-.6-.18-.82-.57-2.29-1.5-4.44-2.74-6.43-.8-1.29-1.79-2.47-2.79-3.63-.6-.69-1.4-.72-1.92-.26-.53.46-.58,1.22,0,1.94.55.68.93,1.41,1.2,2.23.17.5.47.99.82,1.38.53.6.82,1.24.92,2.04.23,1.8,1.49,3.03,2.6,4.32.35.4.92.47,1.36.16.33-.24.52-.66.72-.93ZM323.61,129.86c-.11-.06-.23-.13-.34-.19-.54.7-1.13,1.36-1.61,2.1-1.81,2.76-3.13,5.77-4.45,8.78-.46,1.06-.65,2.24-.85,3.39-.09.5-.01,1.1.18,1.57.34.84,1.29.97,1.84.25.31-.41.52-.95.61-1.47.31-1.85.98-3.55,1.86-5.19.82-1.52,1.36-3.12,1.63-4.83.17-1.06.52-2.09.79-3.14.11-.43.22-.85.34-1.27ZM113.8,184.71c.79-.09,1.28-.15,1.77-.21,2.48-.27,4.59-1.57,6.85-2.45,2.78-1.09,3.99-3.35,4.49-6.1.06-.32-.15-.87-.39-1-.25-.13-.83,0-1.05.23-.5.51-.88,1.14-1.29,1.73-1.04,1.53-2.4,2.6-4.13,3.34-1.69.72-3.23,1.78-4.84,2.68-.42.24-.86.46-1.32.62-.49.17-1.24-.25-1.39.65.51.2,1.02.4,1.29.51ZM492.35,26.29c.12.77.76.88,1.28,1.04,1.06.34,1.76,1.06,2.27,2,.25.48.44.99.67,1.48.53,1.16,1.17,2.22,2.3,2.94.28.18.42.63.53.98.18.6.28,1.23,1.03,1.47.65-.45.54-1.08.52-1.71-.01-.34-.03-.77.15-1,1.05-1.31.7-2.54-.16-3.71-.67-.9-1.44-1.73-2.2-2.56-.5-.54-1.21-1.11-1.89-.8-1.12.51-1.99.04-2.95-.29-.51-.17-1.03-.31-1.52.14ZM304.62,2.32l-.06.33c.47.19.94.39,1.41.58,1.05.41,2.11.78,3.14,1.24.44.19.91.48,1.19.85,1.39,1.86,3.34,2.8,5.48,3.5,1.11.36,2.17.87,3.25,1.31,1.79.73,3.58,1.46,5.38,2.17.22.09.48.09.72.12-.17-.29-.39-.42-.61-.56-1.25-.79-2.51-1.58-3.76-2.37-.53-.34-1.07-.66-1.6-1.01-1.01-.67-2-1.38-3.04-2-1.42-.85-2.82-1.8-4.35-2.41-.98-.39-2.03-.66-3.02-1.09-.81-.36-1.71-.54-2.6-.7-.5-.09-1.03.02-1.55.04ZM389.41,28.82c-.05-.29-.03-.41-.08-.46-.19-.19-.38-.37-.6-.53-2.18-1.63-4.63-2.77-7.1-3.86-.81-.36-1.71-.54-2.59-.71-.52-.1-1.07-.03-1.61.02-.57.05-1.14.18-1.72.23-.47.04-1.01.1-1.02.64,0,.29.43.59.68.87.08.09.25.17.36.16,1.14-.16,2.07.5,3.09.8,1.29.37,2.53.91,3.77,1.44.83.35,1.6.83,2.42,1.2,1.41.62,2.86.49,4.4.21ZM280.15,151.35c-.19.01-.24,0-.28.02-.17.07-.34.13-.5.21-2.71,1.46-5.59,1.93-8.63,1.43-1.07-.18-2.14-.33-3.21-.48-.35-.05-.72-.12-1.07-.08-.62.06-1.17.31-1.3.98-.12.61.28,1.03.77,1.31.31.18.66.32,1.01.37,2.14.3,4.28.57,6.43.82.4.05.81,0,1.21-.07,1.72-.25,4.79-2.72,5.58-4.52ZM84.61,97.42l-.07.39c.3.18.59.42.92.52,1.58.49,2.67,1.58,3.7,2.81,1.43,1.72,3.47,2.35,5.56,2.76.49.1,1.11,0,1.56-.24.6-.32,1.17-.38,1.8-.27.44.08.9.15,1.34.12.26-.02.52-.23.77-.36-.15-.25-.23-.61-.45-.74-1.01-.62-2.13-.94-3.33-.92-1.4.02-2.64-.42-3.72-1.34-.47-.4-1-.81-1.57-1.02-1.51-.57-3.04-1.08-4.59-1.52-.61-.17-1.28-.12-1.92-.17ZM130.93,99.04c.06.07.12.13.18.2.33-.39.69-.75.98-1.16.36-.52.67-1.07.98-1.61.95-1.68,1.96-3.33,2.82-5.06.35-.7.53-1.56.52-2.34-.04-2.61-.21-5.22-.32-7.84-.1,0-.19,0-.29-.01-.16,1.19-.35,2.39-.47,3.58-.13,1.41-.51,2.73-1.16,3.99-.83,1.6-1.6,3.22-2.36,4.86-.22.48-.4,1.01-.47,1.54-.17,1.28-.28,2.57-.41,3.85ZM362.53,106.31c-.35-.31-.59-.63-.92-.79-.74-.37-1.53-.24-2.23.06-2.56,1.12-5.02,2.44-7.14,4.3-.27.23-.58.53-.64.84-.08.44-.05.99.16,1.37.25.46.81.54,1.32.35.29-.11.58-.26.82-.45,2.15-1.74,4.51-3.11,7.09-4.12.33-.13.66-.32.91-.57.24-.23.38-.57.64-.99ZM142.19,18c.09-.04.18-.07.27-.11,0-.81-.35-1.53-.74-2.23-.45-.83-.92-1.65-1.33-2.5-1.14-2.34-2.9-3.92-5.37-4.79-1.46-.52-2.84.19-4.26.06-.16-.02-.47.31-.5.51-.03.2.16.55.35.64.92.45,1.83.98,2.82,1.2,1.38.32,2.48.95,3.45,1.96.58.6,1.28,1.14,2.02,1.53,1.17.61,2.04,1.45,2.66,2.59.21.38.41.76.62,1.14ZM148.59,24.52c.92.52,1.63.98,2.38,1.33,1.75.81,3.44,1.79,5.49,1.73,1.97-.06,3.8.47,5.44,1.61,1.15.8,2.29,1.59,3.46,2.36.33.22.72.37,1.11.46.15.04.41-.13.53-.28.07-.09,0-.35-.07-.48-.08-.15-.25-.25-.4-.36-1.62-1.14-3.24-2.29-4.87-3.42-.75-.52-1.58-.99-2.51-.85-.87.14-1.46-.22-2.09-.69-.94-.71-1.95-1.43-3.16-1.41-1.62.03-3.23.11-4.82-.26-.07-.02-.16.07-.51.25ZM43.66,104.57c0,.06-.02.12-.03.18-.27,0-.54-.02-.81,0-.71.07-1.44.11-2.13.27-.58.13-.9.59-.91,1.2,0,.57.44,1.05,1.11,1.18.31.06.63.06.94.03,2.13-.19,4.23.04,6.31.49.57.12,1.16.19,1.74.17.57-.01,1.06-.28,1.2-.91.15-.68-.23-1.12-.8-1.4-.24-.12-.5-.21-.76-.26-1.95-.33-3.9-.64-5.86-.96ZM359.22,152.29c-.79-.04-1.51-.13-2.23-.09-.64.04-.91.68-.44,1.03.71.53,1.53,1.29,2.3,1.29,1.37,0,2.42.1,3.4,1.23.51.59,1.57.7,2.39,1.03q.41-.78.27-1.45c-.06-.26-.23-.56-.15-.77.56-1.59-.45-2.46-1.51-3.27-1.32-1.01-3.17-.57-4.02,1ZM181.53,43.9c-.23-.5-.25-.64-.34-.72-1.84-1.78-3.67-3.56-5.52-5.32-.52-.5-1.1-.93-1.66-1.38-.91-.73-2.04-.71-3.15-.92.26.88.45,1.78.99,2.35,1.54,1.63,3.21,3.14,4.83,4.69,1.53.41,3.05.82,4.86,1.31ZM467.7,133.3c.15.25.34.87.76,1.2.84.65,1.76,1.26,2.74,1.66,1.18.48,2.31.96,3.3,1.79.39.33.95.55,1.46.61.88.1,1.43-.68,1.14-1.52-.1-.29-.27-.6-.5-.78-.84-.67-1.65-1.45-2.61-1.89-1.51-.7-3.14-1.12-4.39-2.32-.09-.09-.23-.14-.36-.18-.87-.3-1.54.19-1.54,1.43ZM203.16,98.09c-.2.96.02,1.72.57,2.27,1.4,1.4,2.27,3.12,3.26,4.79.42.7,1.12,1.27,1.79,1.77.44.33,1.09.65,1.61.13.47-.47.11-1.07-.13-1.51-1-1.81-2.03-3.61-3.12-5.36-.35-.56-.89-1.02-1.4-1.45-.71-.61-1.55-.86-2.57-.63ZM143.08,85.65c.12.08.23.16.35.24.34-.26.69-.52,1.03-.79,1.94-1.5,3.97-2.89,6.34-3.56,2.25-.64,4.48-1.29,6.55-2.4.2-.11.33-.36.49-.55-.26-.11-.51-.25-.77-.32-.11-.03-.26.06-.39.09-2.8.7-5.62,1.34-8.4,2.11-1.03.28-2.05.73-2.95,1.3-1.41.89-2.06,2.29-2.24,3.88ZM305.78,175.07c-.53.63-1.01,1.11-1.39,1.66-1.4,2.04-2.43,4.23-2.37,6.77.02.66.14,1.36.41,1.95.39.86,1.13.93,1.66.13.33-.5.54-1.15.56-1.75.05-1.53.46-2.93,1.15-4.27.21-.4.42-.8.56-1.23.35-1.12.37-2.21-.58-3.27ZM238.57,119.02c-.09.03-.17.06-.26.08,0,.29-.05.6,0,.88.24,1.17.13,2.32-.14,3.47-.66,2.86.68,5.16,2.16,7.39.44.67,1.2.76,1.8.45.6-.32.87-.95.66-1.74-.14-.51-.33-1.04-.62-1.48-1.53-2.34-2.72-4.82-3.07-7.64-.06-.49-.35-.94-.54-1.41ZM88.59,187.49c1.19-.09,2-.14,2.8-.21.88-.08,1.45-.56,1.51-1.27.06-.71-.42-1.28-1.29-1.49-.57-.14-1.14-.27-1.71-.37-1.55-.25-3.1-.5-4.65-.7-.52-.07-.98.16-1.21.68-.23.51-.13,1.04.28,1.36,1.38,1.04,2.88,1.82,4.26,2ZM225.82,144.64c-.1.06-.21.12-.31.19-.17,1.21-.13,2.42.35,3.56.89,2.1,2.52,3.7,3.86,5.49.37.49.99.68,1.58.33.6-.35.68-.99.46-1.55-.27-.7-.66-1.37-1.08-1.99-.78-1.15-1.58-2.29-2.45-3.38-.75-.93-1.6-1.77-2.41-2.65ZM6.15,148.65c.14,1.05.2,2.04.85,2.86.45.57,1.14.76,1.68.48.63-.32.71-.88.58-1.5-.03-.13-.07-.26-.11-.39-.4-1.2-.18-2.27.57-3.3.52-.72.98-1.51,1.34-2.32.34-.76.08-1.45-.5-1.76-.59-.31-1.27-.12-1.74.58-.65.97-1.33,1.93-1.86,2.96-.38.74-.55,1.59-.81,2.39ZM399.79,41.93c-.14-.93-.22-1.87-.42-2.8-.37-1.7-1.66-2.63-3.09-3.35-.68-.34-1.14.09-1.01.87.09.57.26,1.15.51,1.67.59,1.19.88,2.45.97,3.77.03.4.11.81.25,1.18.22.61.69.94,1.36.91.67-.03,1.09-.43,1.27-1.04.11-.38.11-.8.17-1.22ZM56.44,47.34c.04-.09.08-.19.12-.28-.26-.18-.51-.44-.8-.52-1.34-.36-2.69-.68-4.04-1-.91-.22-1.83-.45-2.75-.64-1.27-.27-2.54-.58-3.83-.74-1.15-.14-2.19.24-3.12,1.12,1,.78,2.02,1.27,3.18,1.48,1.79.34,3.56.37,5.35-.07,1.42-.35,2.85-.31,4.24.26.51.21,1.09.26,1.65.39ZM479,33.6l.23.23c.24-.09.51-.15.73-.29,1.79-1.12,3.57-2.24,5.35-3.38.99-.63,1.66-1.51,1.96-2.64.09-.35,0-.75,0-1.12-.34.02-.69,0-1.01.08-.3.07-.6.21-.86.37-1.25.79-2.56,1.51-3.72,2.41-1.42,1.1-2.19,2.65-2.66,4.33ZM454.37,122.16c1.62,2.11,2.16,4.26,2.24,6.56,0,.13.04.27.07.4.36,1.75-.19,2.79-1.84,3.53-.16.07-.28.21-.58.45.5,0,.78.06,1.04,0,2.15-.55,3.6-1.1,3.48-3.64-.04-.81.09-1.63.03-2.43-.17-2.46-1.6-4.11-4.44-4.86ZM522.45,158.77c-2.24.43-4.21,1.03-6,2.12-.26.16-.48.41-.65.67-.44.69-.21,1.28.6,1.35.61.06,1.28.03,1.86-.15,1.89-.57,3.76-1.23,5.64-1.86.21-.07.43-.15.62-.26.57-.35.63-.85.05-1.14-.71-.35-1.5-.53-2.12-.74ZM366.46,152.54c-.15.01-.3.03-.45.04,0,.75.01,1.5,0,2.25-.03,1.43-.09,2.87-.13,4.3-.02.72-.1,1.45,0,2.15.11.75.71,1.24,1.27,1.2.71-.05,1.01-.56,1.14-1.16.15-.66.17-1.34.32-2,.62-2.72-.76-4.75-2.15-6.79ZM344.24,57.82c-.71.72-.8,1.31-.58,1.87.78,2.01,1.49,4.04,1.88,6.17.04.21.21.4.28.61.32.98.65,1.96.33,3.01-.09.3-.15.63-.1.93.04.22.27.52.45.55.2.04.57-.14.65-.32.16-.4.22-.86.27-1.3.08-.85-.06-1.76.21-2.54.67-1.86.09-3.2-1.28-4.45-.5-.45-.83-1.14-1.11-1.78-.37-.83-.62-1.72-.99-2.77ZM484.8,72.93c.25-.33.43-.61.64-.87.22-.28.53-.5.66-.81.53-1.32-.7-4.21-2-4.8-.12-.05-.27-.14-.38-.12-.91.21-1.51-.41-2.2-.79-.23-.13-.48-.21-.73-.31.14.58.41.99.65,1.41.22.39.56.79.58,1.2.1,1.97.95,3.51,2.48,4.71.1.08.17.21.31.38ZM404.46,81.69c1.77.3,2.24.04,2.9-1.71.25-.67.43-1.37.54-2.08.16-1.05.58-1.97,1.23-2.8.53-.67,1.04-1.35,1.53-2.06.16-.23.2-.53.37-1.01-1.18.3-1.84.89-2.39,1.69-1.14,1.67-2.31,3.31-3.44,4.98-.32.48-.71,1-.79,1.54-.12.77-.5,1.31-.95,1.88-.25.31-.65.61-.38,1.32.53-.67.97-1.22,1.4-1.76ZM119.16,159.35c.1-.31.22-.52.21-.71-.1-1.14.2-2.18.56-3.27.58-1.77.5-3.52-.97-5-.69-.69-1.18-1.57-1.78-2.35-.22-.29-.47-.55-.72-.83-.63.59-.22.98-.03,1.34.63,1.21,1,2.47,1.13,3.84.18,1.87.47,3.73.73,5.59.05.35.14.71.29,1.03.07.15.33.21.59.36ZM74.91,97.76c.4.24.77.63,1.16.66,1.96.15,3.93.23,5.9.27.56.01,1.03-.35,1.13-.97.09-.56-.22-.95-.66-1.22-.22-.14-.48-.26-.74-.32-1.54-.37-3.11-.48-4.68-.27-1.01.13-1.79.57-2.1,1.86ZM229.12,69.51c.82-.02,1.3-.47,1.64-1.19.54-1.13,1.15-2.23,1.73-3.34.14-.28.3-.56.39-.85.18-.55.15-1.09-.34-1.47-.49-.39-1.04-.27-1.51.06-.32.23-.61.54-.85.85-1.03,1.34-1.71,2.85-2.2,4.45-.28.93.17,1.51,1.12,1.49ZM291.56,119.94c.38-.37.98-.69,1.16-1.17.59-1.55,1.09-3.15,1.49-4.76.15-.61.15-1.49-.63-1.75-.7-.23-1.15.45-1.49.96-.93,1.41-1.44,3-1.64,4.68-.09.81.21,1.5,1.11,2.04ZM569.11,169.52c-.78-.27-1.26-.5-1.75-.59-1.7-.31-3.3-.86-4.86-1.6-1.09-.52-2.26-.89-3.41-1.26-.48-.15-1.02-.11-1.63-.16.17.85.74,1.07,1.24,1.33,1.71.89,3.44,1.76,5.14,2.66,1.35.71,2.72.91,4.16.35.3-.12.56-.36,1.11-.73ZM342.02,7.94c.22.12.31.21.38.2,2.01-.16,4.03-.32,6.04-.49.04,0,.09-.02.13-.04.82-.29,1.12-1.08.51-1.69-.41-.41-1.04-.73-1.62-.82-1.37-.22-2.7.16-3.96.67-.9.36-1.29,1.18-1.49,2.17ZM456.52,68.1c.12-.28.26-.56.35-.85.58-1.94,1.68-3.56,3.12-4.97.65-.63,1.3-1.24,1.91-1.91.73-.8,1.42-1.62,2.09-2.46.42-.53.69-1.12.31-1.89-1.14.87-2.16,1.74-3.27,2.46-.77.5-1.18,1.13-1.52,1.95-.5,1.19-1.18,2.3-1.81,3.43-.33.59-.76,1.12-1.06,1.71-.38.76-.56,1.58-.11,2.51ZM400.07,112.35c-.04.12-.08.25-.13.37.3.31.56.65.89.91.86.66,1.88.9,2.94.76,2.41-.32,4.76.04,7.1.51.48.1.98.13,1.47.19-.16-.33-.35-.44-.55-.5-2.15-.66-4.28-1.41-6.45-1.95-1.34-.33-2.75-.39-4.13-.51-.37-.03-.76.14-1.14.22ZM334.73,187.55c-.02-.42.02-.62-.05-.78-.11-.27-.28-.72-.45-.73-.3-.02-.65.18-.92.37-.16.11-.2.39-.28.6-.57,1.37-1.19,2.72-1.7,4.11-.21.56-.25,1.22-.22,1.82.02.58.42,1.01,1.03,1.08.67.09,1.14-.3,1.36-.88.15-.41.25-.89.18-1.31-.15-.99.11-1.85.54-2.72.27-.55.39-1.18.51-1.56ZM290.04,58.53c.73-1.16,1.38-2.06,1.89-3.04.61-1.19,1.14-2.42,1.62-3.67.21-.54.18-1.18-.4-1.57-.43-.29-1.04-.07-1.63.6-.79.89-1.36,1.95-1.45,3.12-.11,1.46-.03,2.93-.03,4.56ZM287.79,3.75c.42.26.78.64,1.17.68,1.71.18,3.42.13,4.96-.75.41-.24.91-.78.91-1.19,0-.71-.8-.82-1.34-.83-1.16-.03-2.33.08-3.49.17-1.09.09-1.83.64-2.22,1.91ZM435.77,118.49c-1.33-1.15-2.78-1.95-4.42-2.28-.81-.17-1.7-.11-2.53,0-.54.07-1,.46-1.04,1.09-.04.63.4.96.92,1.19.16.07.34.11.52.14,2.18.38,4.35-.06,6.55-.13ZM392.61,110.92c0-.1.02-.2.03-.3-2.04-.82-4.14-1.42-6.36-1.43-.57,0-1.16.13-1.71.3-.98.3-1.53.82-1.38,1.25.26.72.96.77,1.57.8.76.04,1.52-.03,2.28-.1,1.43-.12,2.86-.28,4.29-.42.43-.04.86-.07,1.29-.1ZM332.35,171.68c1.6-2.05,1.34-4.58-.47-5.99-.51-.4-1.05-.48-1.64-.22-.57.25-.75.76-.74,1.33.01.99.33,1.88,1.25,2.37.66.35.99.88,1.22,1.53.1.29.22.58.38.98ZM370.16,109.89c-.56-2.78-3.9-4.45-6.11-3.2.2,1.28.42,1.67,1.34,2.13,1.46.73,3.02,1.03,4.77,1.07ZM28.98,153.14c-.5,1.71-.95,3.39-.89,5.15.05,1.33.77,2.09,1.72,1.95.89-.13,1.34-.94,1.18-2.23-.21-1.78-1.25-3.23-2.02-4.87ZM155.51,128.52s.03,0,.04,0c-.05-.58-.06-1.17-.17-1.74-.1-.51-.41-1-.97-.96-.39.03-.87.28-1.13.58-.71.82-.67,3.28-.02,4.13.36.47.83.7,1.42.54.6-.16.89-.6.9-1.2,0-.45-.05-.9-.08-1.35ZM148.92,145.4c.61,1.14,1.14,2.12,1.66,3.1.27.52.49,1.06.8,1.56.47.77,1,.99,1.53.71.57-.3.72-1.01.36-1.78-.1-.2-.23-.38-.36-.56-.94-1.28-1.88-2.55-2.85-3.86-.39.29-.78.58-1.12.83ZM22.16,131.8c-.12-.18-.28-.62-.6-.87-.43-.35-1.01-.25-1.36.14-.72.8-1.38,1.65-2,2.52-.31.43-.24.96.14,1.37.38.41.86.46,1.37.29.98-.31,2.43-2.2,2.46-3.45ZM123.31,17.65c.62-.37.64-.96.78-1.44.34-1.23.75-2.39,1.57-3.41.32-.39.44-.98.53-1.5.04-.24-.15-.67-.35-.76-.21-.09-.62.04-.83.21-.31.25-.47.67-.78.92-2.04,1.71-1.51,3.78-.92,5.97ZM32.94,95.52c-.09-.15-.21-.46-.41-.67-.98-1.04-1.96-2.08-2.99-3.08-.17-.17-.61-.24-.83-.15-.23.1-.47.46-.49.72-.02.33.13.71.31,1,.46.72.9,1.48,1.49,2.07.49.49,1.15.86,1.8,1.1.58.21,1.11-.28,1.11-.99ZM250.62,141.84c-.32.18-.83.34-1.11.68-.38.45-.08,1.04.29,1.32.81.62,1.69,1.17,2.61,1.61.29.14.96-.06,1.18-.33.22-.27.25-.89.09-1.23-.56-1.2-1.65-1.72-3.06-2.05ZM30.95,71.17c-.23-.47-.54-1.31-1.02-2.05-.42-.66-1.16-.86-1.63-.57-.59.36-.64.96-.52,1.55.14.65.36,1.29.56,1.93.26.83.74,1.2,1.44,1.1.72-.1,1.19-.73,1.16-1.96ZM72.52,98.24c-1.18-.08-2.06.35-2.86,1.05-1.68,1.48-3.21,3.16-5.28,4.14-.16.08-.25.3-.38.45l.15.26c.3-.09.62-.12.88-.27,2.01-1.18,4.02-2.37,6.01-3.59.72-.45,1.28-1.07,1.48-2.05ZM380.39,106.91c2.28-.5,7.46-4.83,7.83-6.46-2.69,2.18-6,3.42-7.83,6.46ZM102.64,184.77c-.57.12-1.16.19-1.7.38-.61.22-.92.72-.82,1.39.08.58.57.99,1.26,1,.49,0,.99-.06,1.48-.14,1.13-.18,1.7-.69,1.65-1.43-.05-.75-.71-1.15-1.87-1.2ZM450.48,101.4c.33.83.58,1.7,1.01,2.47.45.8,1.32.98,1.96.56.64-.41.85-1.32.28-2.02-.56-.68-1.27-1.27-2.01-1.75-.68-.45-1.1-.13-1.25.74ZM355.79,11.87c0-1.82-1.21-2.55-2.04-3.51-.12-.14-.62-.08-.85.05-.17.1-.3.47-.27.69.09.62.2,1.25.43,1.83.21.53.52,1.06.92,1.45.28.27.89.5,1.17.37.36-.17.53-.72.63-.88ZM5.83,34.41c-1.19.03-2.38,1-2.57,1.86-.2.91.48,1.79,1.32,1.54.74-.23,1.45-.7,2.06-1.2.44-.36.47-1.02.12-1.49-.27-.36-.73-.57-.93-.71ZM450.75,121.16s0,.02,0,.03c-.13-.01-.27-.03-.4-.03-.62-.01-1.17.13-1.4.8-.2.57.08,1.22.66,1.62.74.5,1.97.45,2.66-.11.82-.66.66-1.79-.33-2.14-.37-.13-.79-.12-1.19-.18ZM288.74,133.48c1.69-1.11,2.26-2.92,1.51-4.52-.12-.25-.42-.62-.6-.6-.29.03-.67.28-.8.54-.75,1.46-.86,2.96-.11,4.58ZM252.03,20.15c-.43.3-.9.51-1.17.86-.34.44-.18,1,.19,1.36.41.39.91.75,1.43.94.68.25,1.32-.08,1.61-.64.28-.56.16-1.27-.41-1.69-.46-.33-1.02-.52-1.65-.82ZM168.69,80.63c-.91-1.55-3.02-2.04-4.43-1.03.81,1.84,3.15,2.38,4.43,1.03ZM485.07,170.65c.83.01,1.54-.68,1.58-1.52.03-.81-.58-1.48-1.38-1.52-.9-.05-1.77.79-1.75,1.68.02.76.7,1.35,1.55,1.37ZM16.88,90.92c-.12-.47-.19-1.01-.43-1.48-.14-.27-.54-.55-.83-.55-.26,0-.64.32-.76.59-.24.57-.4,1.18-.49,1.79-.1.66.29,1.18.87,1.32.63.16,1.24-.17,1.48-.83.09-.25.1-.52.16-.85ZM135.69,60.87c-.14-.59-.17-1.15-.4-1.62-.31-.65-1.16-.65-1.35.01-.25.89-.32,1.84-.32,2.77,0,.27.47.73.76.76.31.03.79-.26.96-.55.24-.4.25-.93.35-1.37ZM99.03,105.32c-.8,0-1.43.59-1.4,1.32.03.71,1.11,1.63,1.9,1.62.69,0,1.22-.6,1.2-1.35-.03-.84-.82-1.59-1.7-1.59ZM214.04,112.88c-.52,1.36-.27,2.63.62,3.38.64.54,1.17.37,1.41-.44.4-1.34-.46-2.62-2.04-2.94ZM261.17,151.85c-.28-.45-.38-.71-.56-.88-1.32-1.22-2.64-2.44-4.01-3.6-.33-.28-.84-.34-1.47-.57.16.38.18.52.26.61,1.04,1.12,2.07,2.24,3.14,3.33.63.64,1.38,1.12,2.64,1.12ZM34.53,107.25c0,.83.63,1.54,1.38,1.52.72-.02,1.23-.64,1.23-1.48,0-.86-.49-1.48-1.2-1.52-.76-.04-1.4.63-1.41,1.48ZM297.37,48.88c0,.11-.01.21-.02.32,1.94.33,3.89.66,5.9,1-.22-1.25-.94-1.89-2.2-1.83-1.23.06-2.45.33-3.68.51ZM221.42,105.52c-1.48.83-2.02,3.01-1.13,4.34,1.4-.84,1.88-2.58,1.13-4.34ZM488.37,81.74c-.01-.99-.23-1.73-.84-2.22-.25-.21-.81-.31-1.07-.17-.26.14-.53.71-.43.97.23.65.63,1.25,1.04,1.81.15.2.62.37.8.28.26-.13.4-.52.5-.66ZM428.24,58.15c2.54,0,4.14-.9,4.45-2.46-1.85.05-3.02,1.15-4.45,2.46ZM76.91,185.17c.82.06,1.55-.47,1.58-1.13.03-.56-.46-1.01-1.15-1.07-.78-.07-1.57.44-1.66,1.07-.08.57.47,1.08,1.23,1.13ZM338.22,175.52c1.67-2.19,2.53-4.68,2.09-5.83-.86.84-1.93,3.74-2.09,5.83ZM40.18,205.64c.11-.01.22-.03.33-.04.42-1.17.86-2.33,1.24-3.51.13-.39.07-.9-.43-.97-.26-.03-.65.24-.85.48-.18.22-.22.58-.27.88-.09.58-.17,1.16-.18,1.74,0,.47.1.94.15,1.41ZM284.99,147.36c.06-.66-.26-1.13-.79-1.19-.73-.07-1.54.6-1.59,1.32-.04.63.38,1.15,1,1.21.7.06,1.32-.53,1.39-1.34ZM42.25,184.95c-.07-.4-.12-.93-.27-1.44-.06-.21-.33-.47-.53-.5-.19-.02-.56.19-.61.36-.17.63-.34,1.29-.32,1.93.01.47.31.95.93.96.5,0,.8-.45.81-1.31ZM440.07,118.81c.58.89,1.32,1.18,2.15,1.1.39-.04.85-.28,1.12-.58.45-.49.17-1.15-.47-1.13-.91.02-1.85.03-2.8.61ZM296.25,2.15c.25.71.89.65,1.43.61.85-.07,1.76-.11,2.27-1.01-1.5-.96-2.63-.83-3.7.4ZM372.28,24c-1.79-1.32-4.69-2.19-5.84-1.73,1.88,1.04,3.8,1.55,5.84,1.73ZM329.1,44.5c1.4-.99,1.96-2.34,1.56-3.76-1.38.7-1.78,1.67-1.56,3.76ZM57.71,47.17c-.06.13-.12.25-.18.38.35.43.63.96,1.07,1.24.29.18.86.11,1.23-.04.45-.19.6-.74.37-1.15-.2-.34-.62-.7-.98-.74-.49-.05-1,.19-1.51.31ZM152.66,68.09c-.05,1.67.15,3.28,1.11,4.7.43-1.75-.05-3.29-1.11-4.7ZM481.45,140.6c-.01-1.01-.81-1.85-1.54-1.85-.54,0-.69.33-.66.8.05.8.88,1.76,1.51,1.63.31-.06.55-.44.7-.57ZM186.15,77.55c-1.13.67-2.16,1.26-3.17,1.9-.14.09-.28.48-.21.55.15.16.45.34.63.3,1.18-.27,2.1-.95,2.73-1.98.09-.15.01-.4.01-.76ZM483.65,150.92c1.14-1.57,1.18-3.64.13-4.54-.27,1.49-.47,2.91-.13,4.54ZM325.64,50.72c1.03-.62,1.46-1.44,1.79-2.31.07-.19-.02-.58-.17-.68-.15-.1-.57-.06-.69.08-.67.77-1.22,1.6-.92,2.9ZM47.61,162.38c.58.02,1.04-.42,1.03-.99-.01-.55-.47-.99-1.05-1.01-.53-.02-.99.36-1.04.85-.05.56.48,1.13,1.07,1.15ZM158.69,107.26c.83-1.21.79-1.97-.09-2.81-.99.94-.98,1.79.09,2.81ZM360.54,20.26c.97,1.03,2.14,1.54,3.52,1.62-.97-.97-2.08-1.67-3.52-1.62ZM422.22,116.53c1.11,1.08,1.86,1.21,2.79.56-.87-.93-1.49-1.07-2.79-.56ZM152.22,65.86c.34-.61.64-.95.7-1.32.07-.5-.26-.85-.8-.87-.5-.02-.96.5-.8,1.01.12.36.47.64.91,1.18ZM55.1,107.22c-.6-.7-1.28-.64-1.93-.52-.19.04-.4.32-.45.54-.03.11.21.4.38.45.69.19,1.39.25,2-.47ZM7.34,57.17c.69.03,1.06-.41,1.07-1.01,0-.39-.1-.72-.58-.74-.49-.02-1.01.44-.94.93.05.33.33.62.45.82ZM489.75,58.08c.24-.83.45-1.36.53-1.91.03-.18-.22-.52-.4-.57-.18-.05-.57.13-.63.29-.12.34-.15.75-.1,1.11.04.27.28.52.6,1.08ZM40.61,208.76c-.33.9-.21,1.43.26,1.84.13.11.45.15.57.07.12-.09.21-.43.14-.56-.23-.4-.54-.76-.97-1.35ZM235.33,48.12c.82-.91.82-.94.04-1.8-.63.55-.57,1.1-.04,1.8ZM466.16,43c-.48.67-.28,1.2.25,1.74.62-.93.61-1-.25-1.74ZM300.8,2.01q.95.74,1.61.06-.75-.58-1.61-.06ZM258.2,45.11c.41-.86.38-1.31-.12-1.49-.16-.06-.51.01-.57.13-.31.57-.1,1.02.46,1.31.04.02.09.02.22.05ZM245.53,136.95c-.11.91.14,1.4.92,1.61q.14-.98-.92-1.61ZM509.23,111.75c.16,0,.31.02.47.02.07-.39.19-.79.19-1.18,0-.13-.29-.37-.43-.36-.15.01-.4.26-.4.41,0,.37.1.74.16,1.11ZM390.44,29.49c.69.76,1.27,1.22,2.43,1.3-.79-.69-1.28-1.26-2.43-1.3ZM571.31,169.84c.99.24,1.7-.01,2.41-.37-.76-.05-1.54-.17-2.41.37ZM316.06,149.35c-.78.51-1.19,1-1.11,1.91.76-.42,1.04-.99,1.11-1.91ZM469.68,194.51c-.04.11-.08.22-.12.33.49.2.98.41,1.48.61-.23-.81-.79-.9-1.36-.95ZM232.42,156.61c-.12.03-.23.06-.35.09,0,.55.04,1.09.8,1.73-.2-.8-.32-1.32-.45-1.83ZM465.22,126.87c-.1.06-.2.13-.3.19.3.46.59.93.89,1.39.11-.07.21-.14.32-.21-.3-.46-.6-.92-.91-1.38ZM341.75,8.69c-.11-.08-.21-.16-.32-.25-.51.21-.75.59-.49,1.3.27-.35.54-.7.82-1.06ZM445.7,45.78c.37-.54.6-.74.6-.93,0-.14-.32-.27-.5-.41-.14.19-.35.37-.39.58-.03.17.14.39.29.76ZM367.19,163.95c-.1-.04-.21-.07-.31-.11-.17.48-.33.95-.5,1.43.09.03.19.07.28.1.18-.47.35-.95.53-1.42ZM390.59,96.8c.04.16.09.32.13.48.29-.1.58-.19.86-.32.02-.01-.08-.28-.12-.43l-.87.28ZM332.17,195.42c-.1-.06-.19-.12-.29-.18-.3.19-.49.43-.13,1.01.18-.36.3-.6.42-.83ZM304.36,50.56c-.07.07-.13.14-.2.22.25.15.5.3.76.46.04-.06.08-.13.12-.19-.23-.16-.45-.32-.68-.48Z"/>
  </g>
</svg>