<?xml version="1.0" encoding="UTF-8"?>
<svg id="Layer_2" xmlns="http://www.w3.org/2000/svg" viewBox="0 0 181.95 114.07">
  <g id="Layer_1-2" data-name="Layer_1">
    <path d="M181.95,48.53c-.39,2.15-.7,4.32-1.18,6.45-4.09,17.95-19.29,31.76-37.49,34.17-8.71,1.15-17.04-.09-25.01-3.77-.25-.11-.48-.26-.81-.44,2.46-2.46,4.84-4.88,7.28-7.23.24-.23.95-.15,1.38,0,4.74,1.56,9.57,2.13,14.54,1.62,14.16-1.45,26.13-11.38,29.91-25.1,2.96-10.75,1.1-20.74-5.33-29.86-.18-.26-.39-.5-.63-.8-28.16,28.17-56.29,56.3-84.64,84.66V30.57c-.09-.05-.18-.1-.27-.14C53.21,56.86,26.72,83.3,0,109.96c0-.86,0-1.4,0-1.94,0-3.72-.03-7.44.03-11.16,0-.56.42-1.11.66-1.66.04-.1.16-.17.25-.26,15.4-15.43,30.81-30.86,46.21-46.3,3.3-3.31,6.56-6.67,9.88-9.98,10.62-10.6,21.25-21.18,31.87-31.77.27-.27.57-.53,1.05-.97v77.46c22.34-22.35,44.66-44.68,67.1-67.12-1.35-.78-2.87-1.78-4.49-2.58-20.76-10.35-45.89,2.51-49.63,25.38-.85,5.18-.58,10.28.88,15.31.22.76.11,1.23-.45,1.78-2.32,2.26-4.59,4.57-6.97,6.95-.19-.34-.35-.59-.46-.86-7.03-16.13-3.4-35.86,8.92-48.42C114.51,3.96,126.25-.59,140,.06c20.08.95,37.93,16.83,41.24,36.68.24,1.45.47,2.9.71,4.35v7.44ZM66.98,98.06c13-15.42,12.36-35.46,6.37-47.11-2.3,2.3-4.57,4.61-6.89,6.87-.55.54-.7.99-.48,1.76,1.11,3.78,1.67,7.66,1.34,11.6-1.16,13.86-8.03,23.88-20.57,29.79-7.66,3.61-15.71,3.96-23.86,1.65-.4-.11-1.04-.15-1.27.08-2.47,2.38-4.88,4.83-7.41,7.35,16.57,7.71,38.75,4.65,52.78-12ZM.12,81.49c3.1-3.11,6.01-6.08,8.98-8.99.71-.69,1.02-1.37,1.01-2.39-.04-11.36-.03-22.72-.03-34.09v-1.47c.6,0,1.03,0,1.47,0,7.08,0,14.16-.12,21.24.06,3.01.07,6.11.4,8.97,1.27,2.36.72,3.77.33,5.28-1.48,1.57-1.89,3.45-3.52,5.3-5.36-5.77-2.8-11.68-4.42-17.9-4.49-11.12-.13-22.24-.06-33.36-.07-.31,0-.63.03-.98.04v56.96Z"/>
  </g>
</svg>