<?xml version="1.0" encoding="UTF-8"?>
<svg id="Capa_1" xmlns="http://www.w3.org/2000/svg" version="1.1" viewBox="0 0 1366 768">
  <!-- Generator: Adobe Illustrator 29.8.4, SVG Export Plug-In . SVG Version: 2.1.1 Build 6)  -->
  <defs>
    <style>
      .st0 {
        fill: #fff;
      }

      .st0, .st1 {
        stroke: #000;
        stroke-miterlimit: 10;
      }
    </style>
  </defs>
  <circle class="st1" cx="685.6" cy="378.4" r="323.2"/>
  <path class="st0" d="M421,311.2c1.4-4.5,3.9-8.8,7.4-12.8,3.5-4,7.7-7.5,12.4-10.5,4.8-3,10-5.4,15.8-7.1,5.7-1.8,11.5-2.7,17.4-2.7h74.6c5.8,0,11.1.9,15.7,2.7,4.6,1.8,8.4,4.1,11.3,7.1,2.9,3,4.9,6.5,5.9,10.5,1,4,.8,8.3-.6,12.8-1.9,6-5.5,11.5-10.9,16.5-5.4,5-11.7,9-18.8,11.8,2.4,2.9,3.9,6.1,4.5,9.8.6,3.6.3,7.5-.9,11.6-1.4,4.5-3.9,8.8-7.4,12.8-3.5,4-7.7,7.5-12.4,10.5-4.8,3-10,5.4-15.8,7.1-5.7,1.8-11.5,2.6-17.4,2.6h-21.3l-5.2,16.6c-1.4,4.5-3.9,8.8-7.4,12.8-3.5,4-7.7,7.5-12.6,10.5-4.8,3-10.1,5.4-15.9,7.1-5.7,1.8-11.5,2.6-17.1,2.6s-11.1-.9-15.7-2.6c-4.6-1.8-8.4-4.1-11.3-7.1-2.9-3-4.9-6.5-5.9-10.5-1-4-.8-8.3.6-12.8l30.9-99.4Z"/>
  <path class="st0" d="M501.9,362.9c-2.1-6.6-1.6-12.6,1.4-18.1,3-5.4,7.8-9.4,14.4-12.1,1.6-5.7,5.4-10.4,11.2-14.1,5.8-3.6,13-5.5,21.5-5.5h53.3c8.5,0,16.8,1.8,24.9,5.5,8.1,3.6,14.8,8.3,20,14.1,8.2,2.7,15.5,6.7,21.9,12.1,6.4,5.4,10.6,11.4,12.7,18.1l20.6,66.3c2.1,6.6,1.6,12.6-1.4,18.1-3,5.4-7.8,9.4-14.4,12.1-1.6,5.7-5.4,10.4-11.2,14.1-5.8,3.6-13,5.5-21.5,5.5h-53.3c-8.5,0-16.8-1.8-24.9-5.5-8.1-3.6-14.8-8.3-20-14.1-8.2-2.7-15.5-6.7-21.9-12.1-6.4-5.4-10.6-11.4-12.7-18.1l-20.6-66.3ZM613.3,412.6l-10.3-33.1h-10.7l10.3,33.1h10.7Z"/>
  <path class="st0" d="M637.4,311.2c.5-4.5,2-8.8,4.7-12.8,2.7-4,6.1-7.5,10.2-10.5,4.1-3,8.9-5.4,14.3-7.1,5.4-1.8,11-2.7,16.8-2.7h37.3c7.5,0,14.5,1.5,20.9,4.6,6.7-3.1,14-4.6,21.8-4.6h37.3c5.8,0,11.2.9,16.3,2.7,5,1.8,9.3,4.1,12.8,7.1,3.5,3,6.2,6.5,8.1,10.5,1.9,4,2.6,8.3,2.1,12.8l-10.1,99.6c-.5,4.5-2,8.8-4.7,12.8-2.7,4-6.1,7.5-10.3,10.5-4.2,3-9,5.3-14.4,7-5.4,1.7-10.9,2.6-16.6,2.6s-11.3-.9-16.3-2.6c-5-1.8-9.3-4.1-12.8-7.1-3.5-3-6.2-6.5-8.1-10.5-1.9-4-2.6-8.3-2.1-12.8l.3-2.5c-5.3,1.7-10.7,2.5-16.2,2.5s-11.1-.8-15.7-2.5l-.3,2.7c-.5,4.5-2,8.8-4.7,12.8-2.7,4-6.1,7.5-10.3,10.5-4.2,3-9,5.3-14.4,7-5.4,1.7-10.9,2.6-16.6,2.6s-11.3-.9-16.3-2.6c-5-1.8-9.3-4.1-12.8-7.1-3.5-3-6.2-6.5-8.1-10.5-1.9-4-2.6-8.3-2.1-12.8l10.1-99.4Z"/>
  <path class="st0" d="M799.7,342.5c2.1-6.6,6.3-12.6,12.7-18.1,6.4-5.4,13.7-9.4,21.9-12.1,5.2-5.7,11.9-10.4,20-14.1,8.1-3.6,16.4-5.5,24.9-5.5h53.3c8.5,0,15.7,1.8,21.5,5.5,5.8,3.6,9.6,8.3,11.2,14.1,6.6,2.6,11.4,6.7,14.4,12.1,3,5.4,3.5,11.4,1.4,18.1l-20.6,66.3c-2.1,6.6-6.3,12.6-12.7,18.1-6.4,5.4-13.7,9.4-21.9,12.1-5.2,5.7-11.9,10.4-20,14.1-8.1,3.6-16.4,5.5-24.9,5.5h-53.3c-8.5,0-15.7-1.8-21.5-5.5-5.8-3.6-9.6-8.3-11.2-14.1-6.6-2.7-11.4-6.7-14.4-12.1-3-5.4-3.5-11.4-1.4-18.1l20.6-66.3ZM880.2,392.2l10.3-33.1h-10.7l-10.3,33.1h10.7Z"/>
</svg>